<svg viewBox="0 0 330 200" xmlns="http://www.w3.org/2000/svg"><g><g><g><g><g><line x1="50" y1="177" x2="45" y2="177" style="visibility: inherit;" fill="rgb(0, 0, 0)" stroke="rgb(204, 204, 204)" stroke-width="1px"></line><line x1="50" y1="154.87499999999997" x2="45" y2="154.87499999999997" style="visibility: inherit;" fill="rgb(0, 0, 0)" stroke="rgb(204, 204, 204)" stroke-width="1px"></line><line x1="50" y1="132.74999999999997" x2="45" y2="132.74999999999997" style="visibility: inherit;" fill="rgb(0, 0, 0)" stroke="rgb(204, 204, 204)" stroke-width="1px"></line><line x1="50" y1="110.62499999999996" x2="45" y2="110.62499999999996" style="visibility: inherit;" fill="rgb(0, 0, 0)" stroke="rgb(204, 204, 204)" stroke-width="1px"></line><line x1="50" y1="88.49999999999994" x2="45" y2="88.49999999999994" style="visibility: inherit;" fill="rgb(0, 0, 0)" stroke="rgb(204, 204, 204)" stroke-width="1px"></line><line x1="50" y1="66.37500000000004" x2="45" y2="66.37500000000004" style="visibility: inherit;" fill="rgb(0, 0, 0)" stroke="rgb(204, 204, 204)" stroke-width="1px"></line><line x1="50" y1="44.25000000000004" x2="45" y2="44.25000000000004" style="visibility: inherit;" fill="rgb(0, 0, 0)" stroke="rgb(204, 204, 204)" stroke-width="1px"></line><line x1="50" y1="22.12500000000002" x2="45" y2="22.12500000000002" style="visibility: inherit;" fill="rgb(0, 0, 0)" stroke="rgb(204, 204, 204)" stroke-width="1px"></line><line x1="50" y1="0" x2="45" y2="0" style="visibility: inherit;" fill="rgb(0, 0, 0)" stroke="rgb(204, 204, 204)" stroke-width="1px"></line></g><g transform="translate(40, 0)"><text x="0" y="177" dx="0em" dy="0.3em" style="text-anchor: end; visibility: hidden; font-family: Roboto, sans-serif; font-size: 12px; font-weight: 200;" fill="rgb(33, 33, 33)" stroke="none" stroke-width="1px">0.84</text><text x="0" y="154.87499999999997" dx="0em" dy="0.3em" style="text-anchor: end; visibility: inherit; font-family: Roboto, sans-serif; font-size: 12px; font-weight: 200;" fill="rgb(33, 33, 33)" stroke="none" stroke-width="1px">0.86</text><text x="0" y="132.74999999999997" dx="0em" dy="0.3em" style="text-anchor: end; visibility: hidden; font-family: Roboto, sans-serif; font-size: 12px; font-weight: 200;" fill="rgb(33, 33, 33)" stroke="none" stroke-width="1px">0.88</text><text x="0" y="110.62499999999996" dx="0em" dy="0.3em" style="text-anchor: end; visibility: inherit; font-family: Roboto, sans-serif; font-size: 12px; font-weight: 200;" fill="rgb(33, 33, 33)" stroke="none" stroke-width="1px">0.9</text><text x="0" y="88.49999999999994" dx="0em" dy="0.3em" style="text-anchor: end; visibility: hidden; font-family: Roboto, sans-serif; font-size: 12px; font-weight: 200;" fill="rgb(33, 33, 33)" stroke="none" stroke-width="1px">0.92</text><text x="0" y="66.37500000000004" dx="0em" dy="0.3em" style="text-anchor: end; visibility: inherit; font-family: Roboto, sans-serif; font-size: 12px; font-weight: 200;" fill="rgb(33, 33, 33)" stroke="none" stroke-width="1px">0.94</text><text x="0" y="44.25000000000004" dx="0em" dy="0.3em" style="text-anchor: end; visibility: hidden; font-family: Roboto, sans-serif; font-size: 12px; font-weight: 200;" fill="rgb(33, 33, 33)" stroke="none" stroke-width="1px">0.96</text><text x="0" y="22.12500000000002" dx="0em" dy="0.3em" style="text-anchor: end; visibility: inherit; font-family: Roboto, sans-serif; font-size: 12px; font-weight: 200;" fill="rgb(33, 33, 33)" stroke="none" stroke-width="1px">0.98</text><text x="0" y="0" dx="0em" dy="0.3em" style="text-anchor: end; visibility: hidden; font-family: Roboto, sans-serif; font-size: 12px; font-weight: 200;" fill="rgb(33, 33, 33)" stroke="none" stroke-width="1px">1</text></g><line x1="50" y1="0" x2="50" y2="177" fill="rgb(0, 0, 0)" stroke="rgb(204, 204, 204)" stroke-width="1px"></line></g></g><g transform="translate(50, 0)" clip-path="url(#clip_0)"><clipPath id="clip_0"><rect width="280" height="177"></rect></clipPath><g><g><g><line x1="0" y1="0" x2="0" y2="177" fill="rgb(0, 0, 0)" stroke="rgb(66, 66, 66)" stroke-width="1px" opacity="0.25"></line><line x1="25.454545454545457" y1="0" x2="25.454545454545457" y2="177" fill="rgb(0, 0, 0)" stroke="rgb(66, 66, 66)" stroke-width="1px" opacity="0.25"></line><line x1="50.909090909090914" y1="0" x2="50.909090909090914" y2="177" fill="rgb(0, 0, 0)" stroke="rgb(66, 66, 66)" stroke-width="1px" opacity="0.25"></line><line x1="76.36363636363636" y1="0" x2="76.36363636363636" y2="177" fill="rgb(0, 0, 0)" stroke="rgb(66, 66, 66)" stroke-width="1px" opacity="0.25"></line><line x1="101.81818181818183" y1="0" x2="101.81818181818183" y2="177" fill="rgb(0, 0, 0)" stroke="rgb(66, 66, 66)" stroke-width="1px" opacity="0.25"></line><line x1="127.27272727272727" y1="0" x2="127.27272727272727" y2="177" fill="rgb(0, 0, 0)" stroke="rgb(66, 66, 66)" stroke-width="1px" opacity="0.25"></line><line x1="152.72727272727272" y1="0" x2="152.72727272727272" y2="177" fill="rgb(0, 0, 0)" stroke="rgb(66, 66, 66)" stroke-width="1px" opacity="0.25"></line><line x1="178.1818181818182" y1="0" x2="178.1818181818182" y2="177" fill="rgb(0, 0, 0)" stroke="rgb(66, 66, 66)" stroke-width="1px" opacity="0.25"></line><line x1="203.63636363636365" y1="0" x2="203.63636363636365" y2="177" fill="rgb(0, 0, 0)" stroke="rgb(66, 66, 66)" stroke-width="1px" opacity="0.25"></line><line x1="229.0909090909091" y1="0" x2="229.0909090909091" y2="177" fill="rgb(0, 0, 0)" stroke="rgb(66, 66, 66)" stroke-width="1px" opacity="0.25"></line><line x1="254.54545454545453" y1="0" x2="254.54545454545453" y2="177" fill="rgb(0, 0, 0)" stroke="rgb(66, 66, 66)" stroke-width="1px" opacity="0.25"></line><line x1="280" y1="0" x2="280" y2="177" fill="rgb(0, 0, 0)" stroke="rgb(66, 66, 66)" stroke-width="1px" opacity="0.25"></line></g><g><line x1="0" y1="177" x2="280" y2="177" fill="rgb(0, 0, 0)" stroke="rgb(66, 66, 66)" stroke-width="1px" opacity="0.25"></line><line x1="0" y1="154.87499999999997" x2="280" y2="154.87499999999997" fill="rgb(0, 0, 0)" stroke="rgb(66, 66, 66)" stroke-width="1px" opacity="0.25"></line><line x1="0" y1="132.74999999999997" x2="280" y2="132.74999999999997" fill="rgb(0, 0, 0)" stroke="rgb(66, 66, 66)" stroke-width="1px" opacity="0.25"></line><line x1="0" y1="110.62499999999996" x2="280" y2="110.62499999999996" fill="rgb(0, 0, 0)" stroke="rgb(66, 66, 66)" stroke-width="1px" opacity="0.25"></line><line x1="0" y1="88.49999999999994" x2="280" y2="88.49999999999994" fill="rgb(0, 0, 0)" stroke="rgb(66, 66, 66)" stroke-width="1px" opacity="0.25"></line><line x1="0" y1="66.37500000000004" x2="280" y2="66.37500000000004" fill="rgb(0, 0, 0)" stroke="rgb(66, 66, 66)" stroke-width="1px" opacity="0.25"></line><line x1="0" y1="44.25000000000004" x2="280" y2="44.25000000000004" fill="rgb(0, 0, 0)" stroke="rgb(66, 66, 66)" stroke-width="1px" opacity="0.25"></line><line x1="0" y1="22.12500000000002" x2="280" y2="22.12500000000002" fill="rgb(0, 0, 0)" stroke="rgb(66, 66, 66)" stroke-width="1px" opacity="0.25"></line><line x1="0" y1="0" x2="280" y2="0" fill="rgb(0, 0, 0)" stroke="rgb(66, 66, 66)" stroke-width="1px" opacity="0.25"></line></g></g></g><g><g><line x1="0" y1="1106.2499999999998" x2="280" y2="1106.2499999999998" fill="rgb(0, 0, 0)" stroke="rgb(153, 153, 153)" stroke-width="1.5px"></line></g></g><g><g><line x1="25.454545454545457" y1="0" x2="25.454545454545457" y2="177" fill="rgb(0, 0, 0)" stroke="rgb(153, 153, 153)" stroke-width="1.5px"></line></g></g><g><g><g><g><g><path stroke="rgb(0, 153, 136)" stroke-width="2px" d="M25.454545454545457,236.52681447565539L30.545454545454543,172.9832894168794L35.63636363636363,141.9741385673381L40.72727272727273,127.56737744956108L45.81818181818182,111.07979140255411L50.909090909090914,101.60585130743925L56,95.77896730566313L61.090909090909086,87.45980598621827L66.18181818181819,82.77150217547461L71.27272727272727,79.35293912030795L76.36363636363636,76.25766450603093L81.45454545454545,74.61889875825956L86.54545454545455,69.20711622731112L91.63636363636364,65.54282274556401L96.72727272727273,62.292011707397485L101.81818181818183,60.34250358936866L106.9090909090909,57.4871564711085L112,56.617210806032126L117.09090909090908,54.1987387845035L122.18181818181817,52.53703187200059L127.27272727272727,50.4864719116216L132.36363636363637,48.834712168835395L137.45454545454547,48.26512057451818L142.54545454545453,47.501919490978864L147.63636363636363,47.67616027830917L152.72727272727272,46.30570332425633L157.8181818181818,44.42985161011995L162.9090909090909,45.62220946974579L168,45.916176552767325L173.0909090909091,45.24971527934295L178.1818181818182,43.796260510295596L183.27272727272728,42.08132006253248L188.36363636363637,41.8952235641154L193.45454545454547,41.99427599368603L198.54545454545456,40.578708830925514L203.63636363636365,40.15078918698296L208.72727272727275,40.315484414898435L213.8181818181818,40.41430155099543L218.9090909090909,43.84500966038387L224,40.84628140862911L229.0909090909091,40.31133273758985L234.18181818181816,40.201073852238544L239.27272727272725,40.13491852106185L244.36363636363635,37.77738546105027L249.45454545454544,38.04857453570684L254.54545454545453,37.15771002087957L259.6363636363636,36.83390162892312L264.72727272727275,37.69319455331808L269.8181818181818,37.365929040345506" style="fill: none;" fill="none"></path></g><g><path stroke="rgb(238, 51, 119)" stroke-width="2px" d="M35.63636363636363,178.8948143319207L40.72727272727273,148.0655133628341L45.81818181818182,128.7991846139277L50.909090909090914,115.04026161927916L56,102.1131839320225L61.090909090909086,94.16384742489879L66.18181818181819,87.29877924891525L71.27272727272727,79.5673479067293L76.36363636363636,74.6941506165309L81.45454545454545,69.93380157334022L86.54545454545455,65.18533333494226L91.63636363636364,62.6565512248842L96.72727272727273,59.928363573969584L101.81818181818183,56.7114592729235L106.9090909090909,54.0969797361581L112,51.73829835338663L117.09090909090908,49.32230125114439L122.18181818181817,46.661135623530136L127.27272727272727,44.74841292121769L132.36363636363637,43.495462796670004L137.45454545454547,41.63744559516324L142.54545454545453,40.3646045849404L147.63636363636363,39.23215314208804L152.72727272727272,38.50001326161172L157.8181818181818,36.11161155007759L162.9090909090909,33.993743355887716L168,33.513220220073364L173.0909090909091,32.59274898639977L178.1818181818182,31.46100633433962L183.27272727272728,30.044461483819475L188.36363636363637,28.773113991743017L193.45454545454547,28.062976522320767L198.54545454545456,26.952065730711325L203.63636363636365,25.86409862982835L208.72727272727275,25.158647390694153L213.8181818181818,24.735376650007822L218.9090909090909,23.79658589387142L224,22.75919344658587L229.0909090909091,22.084086993599552L234.18181818181816,21.679023122154145L239.27272727272725,20.54044617105178L244.36363636363635,19.699260669137267L249.45454545454544,18.61508940279265L254.54545454545453,17.8065473116119L259.6363636363636,17.268751071473392L264.72727272727275,16.68269202504064L269.8181818181818,16.12031990523482" style="fill: none;" fill="none"></path></g><g><path stroke="rgb(51, 187, 238)" stroke-width="2px" d="M25.454545454545457,187.00890094041821L30.545454545454543,148.81695541553196L35.63636363636363,128.79371737339068L40.72727272727273,113.66561862831838L45.81818181818182,100.0088358069154L50.909090909090914,92.08563191152975L56,85.40729432002028L61.090909090909086,82.37922378673353L66.18181818181819,76.55093050988873L71.27272727272727,73.93976926070003L76.36363636363636,72.80616917079261L81.45454545454545,71.70630699024136L86.54545454545455,68.51604058026838L91.63636363636364,65.76104724854464L96.72727272727273,65.58512605483243L101.81818181818183,62.107230706097184L106.9090909090909,59.59962956245999L112,58.938293806794015L117.09090909090908,57.27717001999508L122.18181818181817,57.12343261681433L127.27272727272727,56.188334014991355L132.36363636363637,54.995122336109276L137.45454545454547,54.06849339927047L142.54545454545453,54.566103672440555L147.63636363636363,54.65395741134951L152.72727272727272,53.231668385428804L157.8181818181818,52.589007055180126L162.9090909090909,52.62483157058116L168,51.171327128938735L173.0909090909091,52.61709155509859L178.1818181818182,54.32739138562122L183.27272727272728,50.71786467291544L188.36363636363637,48.34143850218665L193.45454545454547,45.862004882652236L198.54545454545456,46.692211032213486L203.63636363636365,45.71533610427212L208.72727272727275,44.49705382429905L213.8181818181818,44.39824178923245L218.9090909090909,46.86750475187326L224,44.7669343837984L229.0909090909091,47.72087763122539L234.18181818181816,46.753956707082644L239.27272727272725,44.27738492522406" style="fill: none;" fill="none"></path></g><g><path stroke="rgb(204, 51, 17)" stroke-width="2px" d="M35.63636363636363,195.89710484201802L40.72727272727273,163.9117103508291L45.81818181818182,145.48370228753294L50.909090909090914,129.80795739474684L56,117.7407066908518L61.090909090909086,108.20207040421506L66.18181818181819,100.29423950217901L71.27272727272727,94.69986802366313L76.36363636363636,88.40423460222638L81.45454545454545,84.69429016601771L86.54545454545455,80.5218331397184L91.63636363636364,77.81097378321957L96.72727272727273,75.55339007894622L101.81818181818183,71.93368492922414L106.9090909090909,69.76251549154034L112,67.19563236641382L117.09090909090908,65.12884826260557L122.18181818181817,63.730839672033255L127.27272727272727,62.25989603733641L132.36363636363637,61.16663741798339L137.45454545454547,59.404433774375434L142.54545454545453,57.60961770367715L147.63636363636363,54.16218954321175L152.72727272727272,54.200872058075355L157.8181818181818,52.2223182779335L162.9090909090909,52.826239286890875L168,50.92342194483973L173.0909090909091,50.46656045091911L178.1818181818182,49.40224685721097L183.27272727272728,48.184198779991966L188.36363636363637,46.92658099077814L193.45454545454547,46.69879935054632L198.54545454545456,44.45500079034136L203.63636363636365,42.79264301277225L208.72727272727275,42.216648993605226L213.8181818181818,42.08176290206512L218.9090909090909,40.47316166526768L224,39.876750574308204L229.0909090909091,40.572481880625354L234.18181818181816,39.51492207001825L239.27272727272725,37.9848475556198" style="fill: none;" fill="none"></path></g></g></g></g><g opacity="0.2"><g><g><g><path stroke="rgb(0, 153, 136)" stroke-width="2px" d="M25.454545454545457,236.52681447565553L30.545454545454543,134.8571743816137L35.63636363636363,112.20535375177859L40.72727272727273,110.6250263750553L45.81818181818182,89.55359905958174L50.909090909090914,88.49998153746127L56,87.44642995297907L61.090909090909086,75.330388918519L66.18181818181819,75.8571647107601L71.27272727272727,74.27677139639853L76.36363636363636,71.64282649755476L81.45454545454545,72.16966822743414L86.54545454545455,61.10711283981798L91.63636363636364,60.05356125533579L96.72727272727273,57.41961635649202L101.81818181818183,57.41961635649202L106.9090909090909,53.20534408092497L112,55.312513187527635L117.09090909090908,50.57139918208122L122.18181818181817,50.044623389840126L127.27272727272727,47.410744428634644L132.36363636363637,46.35712690651417L137.45454545454547,47.410744428634644L142.54545454545453,46.35712690651417L147.63636363636363,47.93752022087574L152.72727272727272,44.25002373754978L157.8181818181818,41.61607883870602L162.9090909090909,47.410744428634644L168,46.35712690651417L173.0909090909091,44.25002373754978L178.1818181818182,41.61607883870602L183.27272727272728,39.50890973210335L188.36363636363637,41.61607883870602L193.45454545454547,42.14285463094711L198.54545454545456,38.455358147621155L203.63636363636365,39.50890973210335L208.72727272727275,40.56252725422382L213.8181818181818,40.56252725422382L218.9090909090909,48.99107180535793L224,36.348189041018486L229.0909090909091,39.50890973210335L234.18181818181816,40.035685524344444L239.27272727272725,40.035685524344444L244.36363636363635,34.2410858720541L249.45454545454544,38.455358147621155L254.54545454545453,35.82141324877739L259.6363636363636,36.348189041018486L264.72727272727275,38.98213393986225L269.8181818181818,36.875030770897865" style="fill: none;" fill="none"></path></g><g><path stroke="rgb(238, 51, 119)" stroke-width="2px" d="M30.545454545454543,178.31693552434442L35.63636363636363,130.37948124110696L40.72727272727273,111.8102554231882L45.81818181818182,103.64506579935549L50.909090909090914,96.00671790540217L56,83.62725600600241L61.090909090909086,82.57363848388194L66.18181818181819,77.17413716018198L71.27272727272727,68.08707341551779L76.36363636363636,67.42855422198771L81.45454545454545,62.819183617830255L86.54545454545455,58.078135550022104L91.63636363636364,58.86833220720289L96.72727272727273,55.83928897976873L101.81818181818183,51.888371631503084L106.9090909090909,50.17636679112911L112,48.20087514817715L117.09090909090908,45.69867365062237L122.18181818181817,42.66963042318821L127.27272727272727,41.87943376600742L132.36363636363637,41.61607883870602L137.45454545454547,38.85045647621155L142.54545454545453,38.455358147621155L147.63636363636363,37.533484026789665L152.72727272727272,37.40180656313896L157.8181818181818,32.529015094041824L162.9090909090909,30.81694431602955L168,32.792435958981514L173.0909090909091,31.21204264461994L178.1818181818182,29.763392731547356L183.27272727272728,27.919644489884377L188.36363636363637,26.866092905402184L193.45454545454547,26.997770369052887L198.54545454545456,25.28569959104061L203.63636363636365,24.23214800655842L208.72727272727275,24.100470542907715L213.8181818181818,24.100470542907715L218.9090909090909,22.38839976489544L224,21.20310477912426L229.0909090909091,21.071427315473557L234.18181818181816,21.071427315473557L239.27272727272725,18.832580745220184L244.36363636363635,18.43748241662979L249.45454545454544,16.988832503557205L254.54545454545453,16.593734174966812L259.6363636363636,16.46205671131611L264.72727272727275,15.803603455424309L269.8181818181818,15.27676172554493" style="fill: none;" fill="none"></path></g><g><path stroke="rgb(51, 187, 238)" stroke-width="2px" d="M25.454545454545457,187.00890094041821L30.545454545454543,125.90178810060023L35.63636363636363,109.57140885293482L40.72727272727273,95.87497450411318L45.81818181818182,82.17854015529154L50.909090909090914,81.12498857080935L56,75.8571647107601L61.090909090909086,77.96426787972449L66.18181818181819,67.9553300142288L71.27272727272727,70.06249912083148L76.36363636363636,71.11605070531367L81.45454545454545,70.06249912083148L86.54545454545455,63.741057738661745L91.63636363636364,61.63395456969736L96.72727272727273,65.32145105302332L101.81818181818183,56.892840564250925L106.9090909090909,55.83928897976873L112,57.9464580863714L117.09090909090908,54.78573739528654L122.18181818181817,56.892840564250925L127.27272727272727,54.78573739528654L132.36363636363637,53.20534408092497L137.45454545454547,52.67856828868387L142.54545454545453,55.312513187527635L147.63636363636363,54.78573739528654L152.72727272727272,51.09824091196058L157.8181818181818,51.62501670420168L162.9090909090909,52.67856828868387L168,48.99107180535793L173.0909090909091,54.78573739528654L178.1818181818182,56.892840564250925L183.27272727272728,45.303575322031975L188.36363636363637,44.77679952979088L193.45454545454547,42.14285463094711L198.54545454545456,47.93752022087574L203.63636363636365,44.25002373754978L208.72727272727275,42.66963042318821L213.8181818181818,44.25002373754978L218.9090909090909,50.57139918208122L224,41.61607883870602L229.0909090909091,52.15179249644277L234.18181818181816,45.303575322031975L239.27272727272725,40.56252725422382" style="fill: none;" fill="none"></path></g><g><path stroke="rgb(204, 51, 17)" stroke-width="2px" d="M30.545454545454543,185.29689610004422L35.63636363636363,143.6808172613382L40.72727272727273,126.29688642919062L45.81818181818182,121.42409496009348L50.909090909090914,108.12275893986224L56,100.48434510827063L61.090909090909086,94.2946471273899L66.18181818181819,88.63172493875025L71.27272727272727,86.39287836849688L76.36363636363636,79.01788540184496L81.45454545454545,79.14956286549567L86.54545454545455,74.27677139639853L91.63636363636364,73.74999560415743L96.72727272727273,72.16966822743414L101.81818181818183,66.50668010115622L106.9090909090909,66.50668010115622L112,63.34595941007135L117.09090909090908,62.02898696064947L122.18181818181817,61.63395456969736L127.27272727272727,60.05356125533579L132.36363636363637,59.52678546309469L137.45454545454547,56.76116310060022L142.54545454545453,54.91741485893724L147.63636363636363,48.99107180535793L152.72727272727272,54.25889566540716L157.8181818181818,49.25449267029762L162.9090909090909,53.73211987316606L168,48.06919768452644L173.0909090909091,49.78126846253872L178.1818181818182,47.805776819586754L183.27272727272728,46.35712690651417L188.36363636363637,45.040154457092285L193.45454545454547,46.35712690651417L198.54545454545456,41.08930304646492L203.63636363636365,40.299106389284134L208.72727272727275,41.35265797376633L213.8181818181818,41.87943376600742L218.9090909090909,38.06025981903076L224,38.98213393986225L229.0909090909091,41.61607883870602L234.18181818181816,37.92858235538006L239.27272727272725,35.689735785126686" style="fill: none;" fill="none"></path></g></g></g></g></g></g><g transform="translate(50, 177)" clip-path="url(#clip_1)"><clipPath id="clip_1"><rect width="280" height="23"></rect></clipPath><g><g><line x1="0" y1="0" x2="0" y2="5" style="visibility: inherit;" fill="rgb(0, 0, 0)" stroke="rgb(204, 204, 204)" stroke-width="1px"></line><line x1="25.454545454545457" y1="0" x2="25.454545454545457" y2="5" style="visibility: inherit;" fill="rgb(0, 0, 0)" stroke="rgb(204, 204, 204)" stroke-width="1px"></line><line x1="50.909090909090914" y1="0" x2="50.909090909090914" y2="5" style="visibility: inherit;" fill="rgb(0, 0, 0)" stroke="rgb(204, 204, 204)" stroke-width="1px"></line><line x1="76.36363636363636" y1="0" x2="76.36363636363636" y2="5" style="visibility: inherit;" fill="rgb(0, 0, 0)" stroke="rgb(204, 204, 204)" stroke-width="1px"></line><line x1="101.81818181818183" y1="0" x2="101.81818181818183" y2="5" style="visibility: inherit;" fill="rgb(0, 0, 0)" stroke="rgb(204, 204, 204)" stroke-width="1px"></line><line x1="127.27272727272727" y1="0" x2="127.27272727272727" y2="5" style="visibility: inherit;" fill="rgb(0, 0, 0)" stroke="rgb(204, 204, 204)" stroke-width="1px"></line><line x1="152.72727272727272" y1="0" x2="152.72727272727272" y2="5" style="visibility: inherit;" fill="rgb(0, 0, 0)" stroke="rgb(204, 204, 204)" stroke-width="1px"></line><line x1="178.1818181818182" y1="0" x2="178.1818181818182" y2="5" style="visibility: inherit;" fill="rgb(0, 0, 0)" stroke="rgb(204, 204, 204)" stroke-width="1px"></line><line x1="203.63636363636365" y1="0" x2="203.63636363636365" y2="5" style="visibility: inherit;" fill="rgb(0, 0, 0)" stroke="rgb(204, 204, 204)" stroke-width="1px"></line><line x1="229.0909090909091" y1="0" x2="229.0909090909091" y2="5" style="visibility: inherit;" fill="rgb(0, 0, 0)" stroke="rgb(204, 204, 204)" stroke-width="1px"></line><line x1="254.54545454545453" y1="0" x2="254.54545454545453" y2="5" style="visibility: inherit;" fill="rgb(0, 0, 0)" stroke="rgb(204, 204, 204)" stroke-width="1px"></line><line x1="280" y1="0" x2="280" y2="5" style="visibility: inherit;" fill="rgb(0, 0, 0)" stroke="rgb(204, 204, 204)" stroke-width="1px"></line></g><g transform="translate(0, 8)"><text x="0" y="0" dx="0em" dy="0.95em" style="text-anchor: middle; visibility: hidden; font-family: Roboto, sans-serif; font-size: 12px; font-weight: 200;" fill="rgb(33, 33, 33)" stroke="none" stroke-width="1px">-5</text><text x="25.454545454545457" y="0" dx="0em" dy="0.95em" style="text-anchor: middle; visibility: inherit; font-family: Roboto, sans-serif; font-size: 12px; font-weight: 200;" fill="rgb(33, 33, 33)" stroke="none" stroke-width="1px">0</text><text x="50.909090909090914" y="0" dx="0em" dy="0.95em" style="text-anchor: middle; visibility: inherit; font-family: Roboto, sans-serif; font-size: 12px; font-weight: 200;" fill="rgb(33, 33, 33)" stroke="none" stroke-width="1px">5</text><text x="76.36363636363636" y="0" dx="0em" dy="0.95em" style="text-anchor: middle; visibility: inherit; font-family: Roboto, sans-serif; font-size: 12px; font-weight: 200;" fill="rgb(33, 33, 33)" stroke="none" stroke-width="1px">10</text><text x="101.81818181818183" y="0" dx="0em" dy="0.95em" style="text-anchor: middle; visibility: inherit; font-family: Roboto, sans-serif; font-size: 12px; font-weight: 200;" fill="rgb(33, 33, 33)" stroke="none" stroke-width="1px">15</text><text x="127.27272727272727" y="0" dx="0em" dy="0.95em" style="text-anchor: middle; visibility: inherit; font-family: Roboto, sans-serif; font-size: 12px; font-weight: 200;" fill="rgb(33, 33, 33)" stroke="none" stroke-width="1px">20</text><text x="152.72727272727272" y="0" dx="0em" dy="0.95em" style="text-anchor: middle; visibility: inherit; font-family: Roboto, sans-serif; font-size: 12px; font-weight: 200;" fill="rgb(33, 33, 33)" stroke="none" stroke-width="1px">25</text><text x="178.1818181818182" y="0" dx="0em" dy="0.95em" style="text-anchor: middle; visibility: inherit; font-family: Roboto, sans-serif; font-size: 12px; font-weight: 200;" fill="rgb(33, 33, 33)" stroke="none" stroke-width="1px">30</text><text x="203.63636363636365" y="0" dx="0em" dy="0.95em" style="text-anchor: middle; visibility: inherit; font-family: Roboto, sans-serif; font-size: 12px; font-weight: 200;" fill="rgb(33, 33, 33)" stroke="none" stroke-width="1px">35</text><text x="229.0909090909091" y="0" dx="0em" dy="0.95em" style="text-anchor: middle; visibility: inherit; font-family: Roboto, sans-serif; font-size: 12px; font-weight: 200;" fill="rgb(33, 33, 33)" stroke="none" stroke-width="1px">40</text><text x="254.54545454545453" y="0" dx="0em" dy="0.95em" style="text-anchor: middle; visibility: inherit; font-family: Roboto, sans-serif; font-size: 12px; font-weight: 200;" fill="rgb(33, 33, 33)" stroke="none" stroke-width="1px">45</text><text x="280" y="0" dx="0em" dy="0.95em" style="text-anchor: middle; visibility: hidden; font-family: Roboto, sans-serif; font-size: 12px; font-weight: 200;" fill="rgb(33, 33, 33)" stroke="none" stroke-width="1px">50</text></g><line x1="0" y1="0" x2="280" y2="0" fill="rgb(0, 0, 0)" stroke="rgb(204, 204, 204)" stroke-width="1px"></line></g></g></g></g></svg>