<svg viewBox="0 0 330 200" xmlns="http://www.w3.org/2000/svg"><g><g><g><g><g><line x1="50" y1="177" x2="45" y2="177" style="visibility: inherit;" fill="rgb(0, 0, 0)" stroke="rgb(204, 204, 204)" stroke-width="1px"></line><line x1="50" y1="163.3846153846154" x2="45" y2="163.3846153846154" style="visibility: inherit;" fill="rgb(0, 0, 0)" stroke="rgb(204, 204, 204)" stroke-width="1px"></line><line x1="50" y1="149.76923076923075" x2="45" y2="149.76923076923075" style="visibility: inherit;" fill="rgb(0, 0, 0)" stroke="rgb(204, 204, 204)" stroke-width="1px"></line><line x1="50" y1="136.15384615384613" x2="45" y2="136.15384615384613" style="visibility: inherit;" fill="rgb(0, 0, 0)" stroke="rgb(204, 204, 204)" stroke-width="1px"></line><line x1="50" y1="122.53846153846149" x2="45" y2="122.53846153846149" style="visibility: inherit;" fill="rgb(0, 0, 0)" stroke="rgb(204, 204, 204)" stroke-width="1px"></line><line x1="50" y1="108.92307692307685" x2="45" y2="108.92307692307685" style="visibility: inherit;" fill="rgb(0, 0, 0)" stroke="rgb(204, 204, 204)" stroke-width="1px"></line><line x1="50" y1="95.30769230769225" x2="45" y2="95.30769230769225" style="visibility: inherit;" fill="rgb(0, 0, 0)" stroke="rgb(204, 204, 204)" stroke-width="1px"></line><line x1="50" y1="81.69230769230762" x2="45" y2="81.69230769230762" style="visibility: inherit;" fill="rgb(0, 0, 0)" stroke="rgb(204, 204, 204)" stroke-width="1px"></line><line x1="50" y1="68.076923076923" x2="45" y2="68.076923076923" style="visibility: inherit;" fill="rgb(0, 0, 0)" stroke="rgb(204, 204, 204)" stroke-width="1px"></line><line x1="50" y1="54.46153846153837" x2="45" y2="54.46153846153837" style="visibility: inherit;" fill="rgb(0, 0, 0)" stroke="rgb(204, 204, 204)" stroke-width="1px"></line><line x1="50" y1="40.846153846153875" x2="45" y2="40.846153846153875" style="visibility: inherit;" fill="rgb(0, 0, 0)" stroke="rgb(204, 204, 204)" stroke-width="1px"></line><line x1="50" y1="27.23076923076925" x2="45" y2="27.23076923076925" style="visibility: inherit;" fill="rgb(0, 0, 0)" stroke="rgb(204, 204, 204)" stroke-width="1px"></line><line x1="50" y1="13.615384615384626" x2="45" y2="13.615384615384626" style="visibility: inherit;" fill="rgb(0, 0, 0)" stroke="rgb(204, 204, 204)" stroke-width="1px"></line><line x1="50" y1="0" x2="45" y2="0" style="visibility: inherit;" fill="rgb(0, 0, 0)" stroke="rgb(204, 204, 204)" stroke-width="1px"></line></g><g transform="translate(40, 0)"><text x="0" y="177" dx="0em" dy="0.3em" style="text-anchor: end; visibility: hidden; font-family: Roboto, sans-serif; font-size: 12px; font-weight: 200;" fill="rgb(33, 33, 33)" stroke="none" stroke-width="1px">0.84</text><text x="0" y="163.3846153846154" dx="0em" dy="0.3em" style="text-anchor: end; visibility: inherit; font-family: Roboto, sans-serif; font-size: 12px; font-weight: 200;" fill="rgb(33, 33, 33)" stroke="none" stroke-width="1px">0.85</text><text x="0" y="149.76923076923075" dx="0em" dy="0.3em" style="text-anchor: end; visibility: hidden; font-family: Roboto, sans-serif; font-size: 12px; font-weight: 200;" fill="rgb(33, 33, 33)" stroke="none" stroke-width="1px">0.86</text><text x="0" y="136.15384615384613" dx="0em" dy="0.3em" style="text-anchor: end; visibility: inherit; font-family: Roboto, sans-serif; font-size: 12px; font-weight: 200;" fill="rgb(33, 33, 33)" stroke="none" stroke-width="1px">0.87</text><text x="0" y="122.53846153846149" dx="0em" dy="0.3em" style="text-anchor: end; visibility: hidden; font-family: Roboto, sans-serif; font-size: 12px; font-weight: 200;" fill="rgb(33, 33, 33)" stroke="none" stroke-width="1px">0.88</text><text x="0" y="108.92307692307685" dx="0em" dy="0.3em" style="text-anchor: end; visibility: inherit; font-family: Roboto, sans-serif; font-size: 12px; font-weight: 200;" fill="rgb(33, 33, 33)" stroke="none" stroke-width="1px">0.89</text><text x="0" y="95.30769230769225" dx="0em" dy="0.3em" style="text-anchor: end; visibility: hidden; font-family: Roboto, sans-serif; font-size: 12px; font-weight: 200;" fill="rgb(33, 33, 33)" stroke="none" stroke-width="1px">0.9</text><text x="0" y="81.69230769230762" dx="0em" dy="0.3em" style="text-anchor: end; visibility: inherit; font-family: Roboto, sans-serif; font-size: 12px; font-weight: 200;" fill="rgb(33, 33, 33)" stroke="none" stroke-width="1px">0.91</text><text x="0" y="68.076923076923" dx="0em" dy="0.3em" style="text-anchor: end; visibility: hidden; font-family: Roboto, sans-serif; font-size: 12px; font-weight: 200;" fill="rgb(33, 33, 33)" stroke="none" stroke-width="1px">0.92</text><text x="0" y="54.46153846153837" dx="0em" dy="0.3em" style="text-anchor: end; visibility: inherit; font-family: Roboto, sans-serif; font-size: 12px; font-weight: 200;" fill="rgb(33, 33, 33)" stroke="none" stroke-width="1px">0.93</text><text x="0" y="40.846153846153875" dx="0em" dy="0.3em" style="text-anchor: end; visibility: hidden; font-family: Roboto, sans-serif; font-size: 12px; font-weight: 200;" fill="rgb(33, 33, 33)" stroke="none" stroke-width="1px">0.94</text><text x="0" y="27.23076923076925" dx="0em" dy="0.3em" style="text-anchor: end; visibility: inherit; font-family: Roboto, sans-serif; font-size: 12px; font-weight: 200;" fill="rgb(33, 33, 33)" stroke="none" stroke-width="1px">0.95</text><text x="0" y="13.615384615384626" dx="0em" dy="0.3em" style="text-anchor: end; visibility: hidden; font-family: Roboto, sans-serif; font-size: 12px; font-weight: 200;" fill="rgb(33, 33, 33)" stroke="none" stroke-width="1px">0.96</text><text x="0" y="0" dx="0em" dy="0.3em" style="text-anchor: end; visibility: hidden; font-family: Roboto, sans-serif; font-size: 12px; font-weight: 200;" fill="rgb(33, 33, 33)" stroke="none" stroke-width="1px">0.97</text></g><line x1="50" y1="0" x2="50" y2="177" fill="rgb(0, 0, 0)" stroke="rgb(204, 204, 204)" stroke-width="1px"></line></g></g><g transform="translate(50, 0)" clip-path="url(#clip_0)"><clipPath id="clip_0"><rect width="280" height="177"></rect></clipPath><g><g><g><line x1="0" y1="0" x2="0" y2="177" fill="rgb(0, 0, 0)" stroke="rgb(66, 66, 66)" stroke-width="1px" opacity="0.25"></line><line x1="25.454545454545457" y1="0" x2="25.454545454545457" y2="177" fill="rgb(0, 0, 0)" stroke="rgb(66, 66, 66)" stroke-width="1px" opacity="0.25"></line><line x1="50.909090909090914" y1="0" x2="50.909090909090914" y2="177" fill="rgb(0, 0, 0)" stroke="rgb(66, 66, 66)" stroke-width="1px" opacity="0.25"></line><line x1="76.36363636363636" y1="0" x2="76.36363636363636" y2="177" fill="rgb(0, 0, 0)" stroke="rgb(66, 66, 66)" stroke-width="1px" opacity="0.25"></line><line x1="101.81818181818183" y1="0" x2="101.81818181818183" y2="177" fill="rgb(0, 0, 0)" stroke="rgb(66, 66, 66)" stroke-width="1px" opacity="0.25"></line><line x1="127.27272727272727" y1="0" x2="127.27272727272727" y2="177" fill="rgb(0, 0, 0)" stroke="rgb(66, 66, 66)" stroke-width="1px" opacity="0.25"></line><line x1="152.72727272727272" y1="0" x2="152.72727272727272" y2="177" fill="rgb(0, 0, 0)" stroke="rgb(66, 66, 66)" stroke-width="1px" opacity="0.25"></line><line x1="178.1818181818182" y1="0" x2="178.1818181818182" y2="177" fill="rgb(0, 0, 0)" stroke="rgb(66, 66, 66)" stroke-width="1px" opacity="0.25"></line><line x1="203.63636363636365" y1="0" x2="203.63636363636365" y2="177" fill="rgb(0, 0, 0)" stroke="rgb(66, 66, 66)" stroke-width="1px" opacity="0.25"></line><line x1="229.0909090909091" y1="0" x2="229.0909090909091" y2="177" fill="rgb(0, 0, 0)" stroke="rgb(66, 66, 66)" stroke-width="1px" opacity="0.25"></line><line x1="254.54545454545453" y1="0" x2="254.54545454545453" y2="177" fill="rgb(0, 0, 0)" stroke="rgb(66, 66, 66)" stroke-width="1px" opacity="0.25"></line><line x1="280" y1="0" x2="280" y2="177" fill="rgb(0, 0, 0)" stroke="rgb(66, 66, 66)" stroke-width="1px" opacity="0.25"></line></g><g><line x1="0" y1="177" x2="280" y2="177" fill="rgb(0, 0, 0)" stroke="rgb(66, 66, 66)" stroke-width="1px" opacity="0.25"></line><line x1="0" y1="163.3846153846154" x2="280" y2="163.3846153846154" fill="rgb(0, 0, 0)" stroke="rgb(66, 66, 66)" stroke-width="1px" opacity="0.25"></line><line x1="0" y1="149.76923076923075" x2="280" y2="149.76923076923075" fill="rgb(0, 0, 0)" stroke="rgb(66, 66, 66)" stroke-width="1px" opacity="0.25"></line><line x1="0" y1="136.15384615384613" x2="280" y2="136.15384615384613" fill="rgb(0, 0, 0)" stroke="rgb(66, 66, 66)" stroke-width="1px" opacity="0.25"></line><line x1="0" y1="122.53846153846149" x2="280" y2="122.53846153846149" fill="rgb(0, 0, 0)" stroke="rgb(66, 66, 66)" stroke-width="1px" opacity="0.25"></line><line x1="0" y1="108.92307692307685" x2="280" y2="108.92307692307685" fill="rgb(0, 0, 0)" stroke="rgb(66, 66, 66)" stroke-width="1px" opacity="0.25"></line><line x1="0" y1="95.30769230769225" x2="280" y2="95.30769230769225" fill="rgb(0, 0, 0)" stroke="rgb(66, 66, 66)" stroke-width="1px" opacity="0.25"></line><line x1="0" y1="81.69230769230762" x2="280" y2="81.69230769230762" fill="rgb(0, 0, 0)" stroke="rgb(66, 66, 66)" stroke-width="1px" opacity="0.25"></line><line x1="0" y1="68.076923076923" x2="280" y2="68.076923076923" fill="rgb(0, 0, 0)" stroke="rgb(66, 66, 66)" stroke-width="1px" opacity="0.25"></line><line x1="0" y1="54.46153846153837" x2="280" y2="54.46153846153837" fill="rgb(0, 0, 0)" stroke="rgb(66, 66, 66)" stroke-width="1px" opacity="0.25"></line><line x1="0" y1="40.846153846153875" x2="280" y2="40.846153846153875" fill="rgb(0, 0, 0)" stroke="rgb(66, 66, 66)" stroke-width="1px" opacity="0.25"></line><line x1="0" y1="27.23076923076925" x2="280" y2="27.23076923076925" fill="rgb(0, 0, 0)" stroke="rgb(66, 66, 66)" stroke-width="1px" opacity="0.25"></line><line x1="0" y1="13.615384615384626" x2="280" y2="13.615384615384626" fill="rgb(0, 0, 0)" stroke="rgb(66, 66, 66)" stroke-width="1px" opacity="0.25"></line><line x1="0" y1="0" x2="280" y2="0" fill="rgb(0, 0, 0)" stroke="rgb(66, 66, 66)" stroke-width="1px" opacity="0.25"></line></g></g></g><g><g><line x1="0" y1="1320.6923076923076" x2="280" y2="1320.6923076923076" fill="rgb(0, 0, 0)" stroke="rgb(153, 153, 153)" stroke-width="1.5px"></line></g></g><g><g><line x1="25.454545454545457" y1="0" x2="25.454545454545457" y2="177" fill="rgb(0, 0, 0)" stroke="rgb(153, 153, 153)" stroke-width="1.5px"></line></g></g><g><g><g><g><g><path stroke="rgb(51, 187, 238)" stroke-width="2px" d="M25.454545454545457,189.31864731128394L30.545454545454543,142.31317589603933L35.63636363636363,117.6691906134039L40.72727272727273,99.0499921579303L45.81818181818182,82.24164407004972L50.909090909090914,72.49000850649813L56,64.27051608617879L61.090909090909086,60.543660045210494L66.18181818181819,53.37037601217073L71.27272727272727,50.15663909009233L76.36363636363636,48.76143897943706L81.45454545454545,47.40776244952781L86.54545454545455,43.481280714176464L91.63636363636364,40.09051969051645L96.72727272727273,39.874001298255266L101.81818181818183,35.59351471519652L106.9090909090909,32.50723638456611L112,31.69328468528491L117.09090909090908,29.648824639993908L122.18181818181817,29.459609374540673L127.27272727272727,28.308718787681645L132.36363636363637,26.840150567519103L137.45454545454547,25.699684183717476L142.54545454545453,26.312127596849884L147.63636363636363,26.420255275507067L152.72727272727272,24.66974570514314L157.8181818181818,23.87877791406781L162.9090909090909,23.922869625330627L168,22.13394108177074L173.0909090909091,23.91334345242901L178.1818181818182,26.018327859226083L183.27272727272728,21.575833443588206L188.36363636363637,18.65100123346047L193.45454545454547,15.599390624802721L198.54545454545456,16.621182808878107L203.63636363636365,15.418875205257963L208.72727272727275,13.919450860675724L213.8181818181818,13.797836048286076L218.9090909090909,16.83692892538245L224,14.251611549290292L229.0909090909091,17.887234007661984L234.18181818181816,16.697177485640147L239.27272727272725,13.649089138737285" style="fill: none;" fill="none"></path></g><g><path stroke="rgb(204, 51, 17)" stroke-width="2px" d="M35.63636363636363,200.25797519017604L40.72727272727273,160.89133581640507L45.81818181818182,138.21071050773284L50.909090909090914,118.91748602430376L56,104.06548515797141L61.090909090909086,92.3256251128801L66.18181818181819,82.592910156528L71.27272727272727,75.70752987527767L76.36363636363636,67.95905797197092L81.45454545454545,63.39297251202177L86.54545454545455,58.2576407873457L91.63636363636364,54.92119850242405L96.72727272727273,52.142633943318415L101.81818181818183,47.68761222058353L106.9090909090909,45.0154036818958L112,41.85616291250931L117.09090909090908,39.312428630899156L122.18181818181817,37.59180267327166L127.27272727272727,35.78141050749093L132.36363636363637,34.43586143751798L137.45454545454547,32.26699541461588L142.54545454545453,30.057991019910315L147.63636363636363,25.815002514722117L152.72727272727272,25.86261176378505L157.8181818181818,23.427468649764293L162.9090909090909,24.170756045404133L168,21.828827009033493L173.0909090909091,21.266535939592714L178.1818181818182,19.956611516567335L183.27272727272728,18.457475421528542L188.36363636363637,16.90963814249614L193.45454545454547,16.629291508364666L198.54545454545456,13.867693280420095L203.63636363636365,11.821714477258132L208.72727272727275,11.112798761360242L213.8181818181818,10.946785110233979L218.9090909090909,8.966968203406342L224,8.232923783763905L229.0909090909091,9.089208468461951L234.18181818181816,7.787596393868598L239.27272727272725,5.904427760762807" style="fill: none;" fill="none"></path></g><g><path stroke="rgb(0, 119, 187)" stroke-width="2px" d="M25.454545454545457,173.10991793412424L30.545454545454543,158.5219762829632L35.63636363636363,147.1096616801886L40.72727272727273,128.96475115290332L45.81818181818182,118.86610737692273L50.909090909090914,112.79003486285448L56,106.12932513075954L61.090909090909086,100.67164129506794L66.18181818181819,98.76620808273998L71.27272727272727,95.54797243294342L76.36363636363636,112.10974070673659L81.45454545454545,104.33463405677153L86.54545454545455,94.4868199753095L91.63636363636364,98.1895134712686L96.72727272727273,92.88483403077181L101.81818181818183,87.6283189676816L106.9090909090909,87.84735992037204L112,90.31305226466043L117.09090909090908,83.75227860817172L122.18181818181817,81.89086480391417L127.27272727272727,77.66189758803809L132.36363636363637,80.83013615699191L137.45454545454547,77.02552312435098L142.54545454545453,69.2966000760639L147.63636363636363,62.84388164031282L152.72727272727272,61.56565695173325L157.8181818181818,59.76137937377531L162.9090909090909,60.23486207388147L168,61.037623248248444L173.0909090909091,63.33466304900046L178.1818181818182,61.08212035465125L183.27272727272728,63.62069678170523L188.36363636363637,64.10649936053171L193.45454545454547,65.17598823919705L198.54545454545456,61.66824415797198L203.63636363636365,60.34160507977946L208.72727272727275,61.62034031320169L213.8181818181818,60.0535270061412L218.9090909090909,67.67168191590649L224,62.12828485671453L229.0909090909091,57.76487106493634L234.18181818181816,57.48090968822146L239.27272727272725,55.75448575237348L244.36363636363635,49.01314696325669L249.45454545454544,52.74854677702203L254.54545454545453,51.61835667126659L259.6363636363636,50.94024260785823L264.72727272727275,50.792709944477046L269.8181818181818,49.666847247869406" style="fill: none;" fill="none"></path></g><g><path stroke="rgb(255, 112, 67)" stroke-width="2px" d="M40.72727272727273,191.13142664325994L45.81818181818182,172.20730972960777L50.909090909090914,157.7602346341275L56,145.00002248391635L61.090909090909086,137.11481249907393L66.18181818181819,131.15943237302383L71.27272727272727,125.4070354867491L76.36363636363636,118.59423325977237L81.45454545454545,114.13253653410986L86.54545454545455,109.38431046981825L91.63636363636364,103.87901366630707L96.72727272727273,100.25428386759644L101.81818181818183,94.70815566461619L106.9090909090909,91.38148027153544L112,87.89446270815078L117.09090909090908,87.35862076887935L122.18181818181817,81.0072375492875L127.27272727272727,80.37354598007843L132.36363636363637,80.25271158561921L137.45454545454547,77.00323436850321L142.54545454545453,76.479966673835L147.63636363636363,73.76708810043604L152.72727272727272,71.10202102450417L157.8181818181818,68.85462735746893L162.9090909090909,65.69080863045187L168,64.051854507883L173.0909090909091,60.79925331403601L178.1818181818182,59.75538462037931L183.27272727272728,58.610359440629736L188.36363636363637,57.33984698569678L193.45454545454547,56.577539551565536L198.54545454545456,53.59159068183186L203.63636363636365,51.80002139284329L208.72727272727275,51.63277127894332L213.8181818181818,48.87417270350572L218.9090909090909,47.93219506205446L224,46.13515543192985L229.0909090909091,45.96462309817008L234.18181818181816,42.944719424066264L239.27272727272725,40.87340898421075L244.36363636363635,40.6031724527636L249.45454545454544,38.8849834243065L254.54545454545453,37.659560060951335L259.6363636363636,36.60014444007447L264.72727272727275,34.213938011694204L269.8181818181818,34.27340297431244" style="fill: none;" fill="none"></path></g></g></g></g><g opacity="0.2"><g><g><g><path stroke="rgb(51, 187, 238)" stroke-width="2px" d="M25.454545454545457,189.31864731128394L30.545454545454543,114.10989304689258L35.63636363636363,94.01096474207363L40.72727272727273,77.15381477429312L45.81818181818182,60.296664806512645L50.909090909090914,58.99998593330379L56,52.51651041324318L61.090909090909086,55.10986815966088L66.18181818181819,42.79117540212775L71.27272727272727,45.38461430256179L76.36363636363636,46.68129317577065L81.45454545454545,45.38461430256179L86.54545454545455,37.60437875527599L91.63636363636364,35.011021008858265L96.72727272727273,39.54947821910561L101.81818181818183,29.175803771385734L106.9090909090909,27.879124898176883L112,30.47256379861095L117.09090909090908,26.582446024968032L122.18181818181817,29.175803771385734L127.27272727272727,26.582446024968032L132.36363636363637,24.637346561138415L137.45454545454547,23.989007124533988L142.54545454545453,27.23078546157246L147.63636363636363,26.582446024968032L152.72727272727272,22.043988814720713L157.8181818181818,22.69232825132514L162.9090909090909,23.989007124533988L168,19.45054991428665L173.0909090909091,26.582446024968032L178.1818181818182,29.175803771385734L183.27272727272728,14.91209270403931L188.36363636363637,14.263753267434884L193.45454545454547,11.021974930396414L198.54545454545456,18.1538710410778L203.63636363636365,13.61541383083046L208.72727272727275,11.67031436700084L213.8181818181818,13.61541383083046L218.9090909090909,21.395568224099925L224,10.37363549379199L229.0909090909091,23.340667687929564L234.18181818181816,14.91209270403931L239.27272727272725,9.07695662058314" style="fill: none;" fill="none"></path></g><g><path stroke="rgb(204, 51, 17)" stroke-width="2px" d="M30.545454545454543,187.21156443082364L35.63636363636363,135.99177509087778L40.72727272727273,114.59616791284999L45.81818181818182,108.59888610473041L50.909090909090914,92.22801100290737L56,82.82688628710228L61.090909090909086,75.20879646447986L66.18181818181819,68.23904607846183L71.27272727272727,65.48354260738076L76.36363636363636,56.406628186886095L81.45454545454545,56.56869275753311L86.54545454545455,50.57141094941356L91.63636363636364,49.92307151280914L96.72727272727273,47.97805320299584L101.81818181818183,41.00822166296149L106.9090909090909,41.00822166296149L112,37.118103889318576L117.09090909090908,35.497214720799334L122.18181818181817,35.011021008858265L127.27272727272727,33.065921545028644L132.36363636363637,32.41758210842422L137.45454545454547,29.01373920073872L142.54545454545453,26.744510595615047L147.63636363636363,19.45054991428665L152.72727272727272,25.934025434347262L157.8181818181818,19.774760209597044L162.9090909090909,25.28568599774284L168,18.315935611724814L173.0909090909091,20.423099646201468L178.1818181818182,17.99172531641444L183.27272727272728,16.20877157724818L188.36363636363637,14.587882408728934L193.45454545454547,16.20877157724818L198.54545454545456,9.725296057187565L203.63636363636365,8.752746325272746L208.72727272727275,10.049425198481595L213.8181818181818,10.69776463508602L218.9090909090909,5.997242854191666L224,7.131857156753501L229.0909090909091,10.37363549379199L234.18181818181816,5.835178283544651L239.27272727272725,3.0796748124635713" style="fill: none;" fill="none"></path></g><g><path stroke="rgb(0, 119, 187)" stroke-width="2px" d="M25.454545454545457,173.10991793412424L30.545454545454543,149.76921129226682L35.63636363636363,136.1538396615248L40.72727272727273,107.6263363728156L45.81818181818182,105.68131806300232L50.909090909090914,104.38463918979348L56,96.60440364250766L61.090909090909086,92.71428586886475L66.18181818181819,95.95606420590323L71.27272727272727,90.76926755905147L76.36363636363636,136.80217909812924L81.45454545454545,92.71428586886475L86.54545454545455,79.74725367472718L91.63636363636364,103.73629975318904L96.72727272727273,84.93405032157894L101.81818181818183,79.74725367472718L106.9090909090909,88.17582865861743L112,94.01096474207363L117.09090909090908,73.91211759127098L122.18181818181817,79.09891423812275L127.27272727272727,71.31867869083695L132.36363636363637,85.58238975818337L137.45454545454547,71.31867869083695L142.54545454545453,57.70330706009494L147.63636363636363,53.164849849847606L152.72727272727272,59.64832536990822L157.8181818181818,57.05496762349052L162.9090909090909,60.94508539713341L168,62.24176427034228L173.0909090909091,66.7802214805896L178.1818181818182,57.70330706009494L183.27272727272728,67.42856091719403L188.36363636363637,64.83520317077632L193.45454545454547,66.7802214805896L198.54545454545456,56.406628186886095L203.63636363636365,58.35164649669937L208.72727272727275,63.538443143551135L213.8181818181818,57.70330706009494L218.9090909090909,79.09891423812275L224,53.81318928645203L229.0909090909091,51.219750386017985L234.18181818181816,57.05496762349052L239.27272727272725,53.164849849847606L244.36363636363635,38.90113878250118L249.45454545454544,58.35164649669937L254.54545454545453,49.92307151280914L259.6363636363636,49.92307151280914L264.72727272727275,50.57141094941356L269.8181818181818,47.97805320299584" style="fill: none;" fill="none"></path></g><g><path stroke="rgb(255, 112, 67)" stroke-width="2px" d="M35.63636363636363,182.51096149591297L40.72727272727273,161.60162918384253L45.81818181818182,147.49998268714313L50.909090909090914,137.77472883004404L56,126.75271494571976L61.090909090909086,125.61810064315792L66.18181818181819,122.37640346013578L71.27272727272727,116.86539651797364L76.36363636363636,108.4368215340834L81.45454545454545,107.46427180216858L86.54545454545455,102.27747515531682L91.63636363636364,95.63185391059284L96.72727272727273,94.8214499033414L101.81818181818183,86.39287491945117L106.9090909090909,86.39287491945117L112,82.66482171645526L117.09090909090908,86.55493949009818L122.18181818181817,71.48074326148395L127.27272727272727,79.4230433794168L132.36363636363637,80.07146397003757L137.45454545454547,72.12908269808838L142.54545454545453,75.69507133043724L147.63636363636363,69.69778952231769L152.72727272727272,67.1044317759L157.8181818181818,65.48354260738076L162.9090909090909,60.94508539713341L168,61.593424833737856L173.0909090909091,55.92035332092868L178.1818181818182,58.189581926052355L183.27272727272728,56.89282189882714L188.36363636363637,55.43407845497127L193.45454545454547,55.43407845497127L198.54545454545456,49.112667505557674L203.63636363636365,49.112667505557674L208.72727272727275,51.381896110681346L213.8181818181818,44.73627486595737L218.9090909090909,46.51922860512363L224,43.43959599274852L229.0909090909091,45.70882459787219L234.18181818181816,38.41486391654377L239.27272727272725,37.766443325923L244.36363636363635,40.19781765571003L249.45454545454544,36.30769988206713L254.54545454545453,35.82142501610973L259.6363636363636,35.011021008858265L264.72727272727275,30.634628369257964L269.8181818181818,34.3626004182375" style="fill: none;" fill="none"></path></g></g></g></g></g></g><g transform="translate(50, 177)" clip-path="url(#clip_1)"><clipPath id="clip_1"><rect width="280" height="23"></rect></clipPath><g><g><line x1="0" y1="0" x2="0" y2="5" style="visibility: inherit;" fill="rgb(0, 0, 0)" stroke="rgb(204, 204, 204)" stroke-width="1px"></line><line x1="25.454545454545457" y1="0" x2="25.454545454545457" y2="5" style="visibility: inherit;" fill="rgb(0, 0, 0)" stroke="rgb(204, 204, 204)" stroke-width="1px"></line><line x1="50.909090909090914" y1="0" x2="50.909090909090914" y2="5" style="visibility: inherit;" fill="rgb(0, 0, 0)" stroke="rgb(204, 204, 204)" stroke-width="1px"></line><line x1="76.36363636363636" y1="0" x2="76.36363636363636" y2="5" style="visibility: inherit;" fill="rgb(0, 0, 0)" stroke="rgb(204, 204, 204)" stroke-width="1px"></line><line x1="101.81818181818183" y1="0" x2="101.81818181818183" y2="5" style="visibility: inherit;" fill="rgb(0, 0, 0)" stroke="rgb(204, 204, 204)" stroke-width="1px"></line><line x1="127.27272727272727" y1="0" x2="127.27272727272727" y2="5" style="visibility: inherit;" fill="rgb(0, 0, 0)" stroke="rgb(204, 204, 204)" stroke-width="1px"></line><line x1="152.72727272727272" y1="0" x2="152.72727272727272" y2="5" style="visibility: inherit;" fill="rgb(0, 0, 0)" stroke="rgb(204, 204, 204)" stroke-width="1px"></line><line x1="178.1818181818182" y1="0" x2="178.1818181818182" y2="5" style="visibility: inherit;" fill="rgb(0, 0, 0)" stroke="rgb(204, 204, 204)" stroke-width="1px"></line><line x1="203.63636363636365" y1="0" x2="203.63636363636365" y2="5" style="visibility: inherit;" fill="rgb(0, 0, 0)" stroke="rgb(204, 204, 204)" stroke-width="1px"></line><line x1="229.0909090909091" y1="0" x2="229.0909090909091" y2="5" style="visibility: inherit;" fill="rgb(0, 0, 0)" stroke="rgb(204, 204, 204)" stroke-width="1px"></line><line x1="254.54545454545453" y1="0" x2="254.54545454545453" y2="5" style="visibility: inherit;" fill="rgb(0, 0, 0)" stroke="rgb(204, 204, 204)" stroke-width="1px"></line><line x1="280" y1="0" x2="280" y2="5" style="visibility: inherit;" fill="rgb(0, 0, 0)" stroke="rgb(204, 204, 204)" stroke-width="1px"></line></g><g transform="translate(0, 8)"><text x="0" y="0" dx="0em" dy="0.95em" style="text-anchor: middle; visibility: hidden; font-family: Roboto, sans-serif; font-size: 12px; font-weight: 200;" fill="rgb(33, 33, 33)" stroke="none" stroke-width="1px">-5</text><text x="25.454545454545457" y="0" dx="0em" dy="0.95em" style="text-anchor: middle; visibility: inherit; font-family: Roboto, sans-serif; font-size: 12px; font-weight: 200;" fill="rgb(33, 33, 33)" stroke="none" stroke-width="1px">0</text><text x="50.909090909090914" y="0" dx="0em" dy="0.95em" style="text-anchor: middle; visibility: inherit; font-family: Roboto, sans-serif; font-size: 12px; font-weight: 200;" fill="rgb(33, 33, 33)" stroke="none" stroke-width="1px">5</text><text x="76.36363636363636" y="0" dx="0em" dy="0.95em" style="text-anchor: middle; visibility: inherit; font-family: Roboto, sans-serif; font-size: 12px; font-weight: 200;" fill="rgb(33, 33, 33)" stroke="none" stroke-width="1px">10</text><text x="101.81818181818183" y="0" dx="0em" dy="0.95em" style="text-anchor: middle; visibility: inherit; font-family: Roboto, sans-serif; font-size: 12px; font-weight: 200;" fill="rgb(33, 33, 33)" stroke="none" stroke-width="1px">15</text><text x="127.27272727272727" y="0" dx="0em" dy="0.95em" style="text-anchor: middle; visibility: inherit; font-family: Roboto, sans-serif; font-size: 12px; font-weight: 200;" fill="rgb(33, 33, 33)" stroke="none" stroke-width="1px">20</text><text x="152.72727272727272" y="0" dx="0em" dy="0.95em" style="text-anchor: middle; visibility: inherit; font-family: Roboto, sans-serif; font-size: 12px; font-weight: 200;" fill="rgb(33, 33, 33)" stroke="none" stroke-width="1px">25</text><text x="178.1818181818182" y="0" dx="0em" dy="0.95em" style="text-anchor: middle; visibility: inherit; font-family: Roboto, sans-serif; font-size: 12px; font-weight: 200;" fill="rgb(33, 33, 33)" stroke="none" stroke-width="1px">30</text><text x="203.63636363636365" y="0" dx="0em" dy="0.95em" style="text-anchor: middle; visibility: inherit; font-family: Roboto, sans-serif; font-size: 12px; font-weight: 200;" fill="rgb(33, 33, 33)" stroke="none" stroke-width="1px">35</text><text x="229.0909090909091" y="0" dx="0em" dy="0.95em" style="text-anchor: middle; visibility: inherit; font-family: Roboto, sans-serif; font-size: 12px; font-weight: 200;" fill="rgb(33, 33, 33)" stroke="none" stroke-width="1px">40</text><text x="254.54545454545453" y="0" dx="0em" dy="0.95em" style="text-anchor: middle; visibility: inherit; font-family: Roboto, sans-serif; font-size: 12px; font-weight: 200;" fill="rgb(33, 33, 33)" stroke="none" stroke-width="1px">45</text><text x="280" y="0" dx="0em" dy="0.95em" style="text-anchor: middle; visibility: hidden; font-family: Roboto, sans-serif; font-size: 12px; font-weight: 200;" fill="rgb(33, 33, 33)" stroke="none" stroke-width="1px">50</text></g><line x1="0" y1="0" x2="280" y2="0" fill="rgb(0, 0, 0)" stroke="rgb(204, 204, 204)" stroke-width="1px"></line></g></g></g></g></svg>