<svg viewBox="0 0 330 200" xmlns="http://www.w3.org/2000/svg"><g><g><g><g><g><line x1="50" y1="177" x2="45" y2="177" style="visibility: inherit;" fill="rgb(0, 0, 0)" stroke="rgb(204, 204, 204)" stroke-width="1px"></line><line x1="50" y1="154.875" x2="45" y2="154.875" style="visibility: inherit;" fill="rgb(0, 0, 0)" stroke="rgb(204, 204, 204)" stroke-width="1px"></line><line x1="50" y1="132.75" x2="45" y2="132.75" style="visibility: inherit;" fill="rgb(0, 0, 0)" stroke="rgb(204, 204, 204)" stroke-width="1px"></line><line x1="50" y1="110.625" x2="45" y2="110.625" style="visibility: inherit;" fill="rgb(0, 0, 0)" stroke="rgb(204, 204, 204)" stroke-width="1px"></line><line x1="50" y1="88.5" x2="45" y2="88.5" style="visibility: inherit;" fill="rgb(0, 0, 0)" stroke="rgb(204, 204, 204)" stroke-width="1px"></line><line x1="50" y1="66.375" x2="45" y2="66.375" style="visibility: inherit;" fill="rgb(0, 0, 0)" stroke="rgb(204, 204, 204)" stroke-width="1px"></line><line x1="50" y1="44.25000000000002" x2="45" y2="44.25000000000002" style="visibility: inherit;" fill="rgb(0, 0, 0)" stroke="rgb(204, 204, 204)" stroke-width="1px"></line><line x1="50" y1="22.125" x2="45" y2="22.125" style="visibility: inherit;" fill="rgb(0, 0, 0)" stroke="rgb(204, 204, 204)" stroke-width="1px"></line><line x1="50" y1="0" x2="45" y2="0" style="visibility: inherit;" fill="rgb(0, 0, 0)" stroke="rgb(204, 204, 204)" stroke-width="1px"></line></g><g transform="translate(40, 0)"><text x="0" y="177" dx="0em" dy="0.3em" style="text-anchor: end; visibility: hidden; font-family: Roboto, sans-serif; font-size: 12px; font-weight: 200;" fill="rgb(33, 33, 33)" stroke="none" stroke-width="1px">0.05</text><text x="0" y="154.875" dx="0em" dy="0.3em" style="text-anchor: end; visibility: inherit; font-family: Roboto, sans-serif; font-size: 12px; font-weight: 200;" fill="rgb(33, 33, 33)" stroke="none" stroke-width="1px">0.1</text><text x="0" y="132.75" dx="0em" dy="0.3em" style="text-anchor: end; visibility: hidden; font-family: Roboto, sans-serif; font-size: 12px; font-weight: 200;" fill="rgb(33, 33, 33)" stroke="none" stroke-width="1px">0.15</text><text x="0" y="110.625" dx="0em" dy="0.3em" style="text-anchor: end; visibility: inherit; font-family: Roboto, sans-serif; font-size: 12px; font-weight: 200;" fill="rgb(33, 33, 33)" stroke="none" stroke-width="1px">0.2</text><text x="0" y="88.5" dx="0em" dy="0.3em" style="text-anchor: end; visibility: hidden; font-family: Roboto, sans-serif; font-size: 12px; font-weight: 200;" fill="rgb(33, 33, 33)" stroke="none" stroke-width="1px">0.25</text><text x="0" y="66.375" dx="0em" dy="0.3em" style="text-anchor: end; visibility: inherit; font-family: Roboto, sans-serif; font-size: 12px; font-weight: 200;" fill="rgb(33, 33, 33)" stroke="none" stroke-width="1px">0.3</text><text x="0" y="44.25000000000002" dx="0em" dy="0.3em" style="text-anchor: end; visibility: hidden; font-family: Roboto, sans-serif; font-size: 12px; font-weight: 200;" fill="rgb(33, 33, 33)" stroke="none" stroke-width="1px">0.35</text><text x="0" y="22.125" dx="0em" dy="0.3em" style="text-anchor: end; visibility: inherit; font-family: Roboto, sans-serif; font-size: 12px; font-weight: 200;" fill="rgb(33, 33, 33)" stroke="none" stroke-width="1px">0.4</text><text x="0" y="0" dx="0em" dy="0.3em" style="text-anchor: end; visibility: hidden; font-family: Roboto, sans-serif; font-size: 12px; font-weight: 200;" fill="rgb(33, 33, 33)" stroke="none" stroke-width="1px">0.45</text></g><line x1="50" y1="0" x2="50" y2="177" fill="rgb(0, 0, 0)" stroke="rgb(204, 204, 204)" stroke-width="1px"></line></g></g><g transform="translate(50, 0)" clip-path="url(#clip_0)"><clipPath id="clip_0"><rect width="280" height="177"></rect></clipPath><g><g><g><line x1="0" y1="0" x2="0" y2="177" fill="rgb(0, 0, 0)" stroke="rgb(66, 66, 66)" stroke-width="1px" opacity="0.25"></line><line x1="25.454545454545457" y1="0" x2="25.454545454545457" y2="177" fill="rgb(0, 0, 0)" stroke="rgb(66, 66, 66)" stroke-width="1px" opacity="0.25"></line><line x1="50.909090909090914" y1="0" x2="50.909090909090914" y2="177" fill="rgb(0, 0, 0)" stroke="rgb(66, 66, 66)" stroke-width="1px" opacity="0.25"></line><line x1="76.36363636363636" y1="0" x2="76.36363636363636" y2="177" fill="rgb(0, 0, 0)" stroke="rgb(66, 66, 66)" stroke-width="1px" opacity="0.25"></line><line x1="101.81818181818183" y1="0" x2="101.81818181818183" y2="177" fill="rgb(0, 0, 0)" stroke="rgb(66, 66, 66)" stroke-width="1px" opacity="0.25"></line><line x1="127.27272727272727" y1="0" x2="127.27272727272727" y2="177" fill="rgb(0, 0, 0)" stroke="rgb(66, 66, 66)" stroke-width="1px" opacity="0.25"></line><line x1="152.72727272727272" y1="0" x2="152.72727272727272" y2="177" fill="rgb(0, 0, 0)" stroke="rgb(66, 66, 66)" stroke-width="1px" opacity="0.25"></line><line x1="178.1818181818182" y1="0" x2="178.1818181818182" y2="177" fill="rgb(0, 0, 0)" stroke="rgb(66, 66, 66)" stroke-width="1px" opacity="0.25"></line><line x1="203.63636363636365" y1="0" x2="203.63636363636365" y2="177" fill="rgb(0, 0, 0)" stroke="rgb(66, 66, 66)" stroke-width="1px" opacity="0.25"></line><line x1="229.0909090909091" y1="0" x2="229.0909090909091" y2="177" fill="rgb(0, 0, 0)" stroke="rgb(66, 66, 66)" stroke-width="1px" opacity="0.25"></line><line x1="254.54545454545453" y1="0" x2="254.54545454545453" y2="177" fill="rgb(0, 0, 0)" stroke="rgb(66, 66, 66)" stroke-width="1px" opacity="0.25"></line><line x1="280" y1="0" x2="280" y2="177" fill="rgb(0, 0, 0)" stroke="rgb(66, 66, 66)" stroke-width="1px" opacity="0.25"></line></g><g><line x1="0" y1="177" x2="280" y2="177" fill="rgb(0, 0, 0)" stroke="rgb(66, 66, 66)" stroke-width="1px" opacity="0.25"></line><line x1="0" y1="154.875" x2="280" y2="154.875" fill="rgb(0, 0, 0)" stroke="rgb(66, 66, 66)" stroke-width="1px" opacity="0.25"></line><line x1="0" y1="132.75" x2="280" y2="132.75" fill="rgb(0, 0, 0)" stroke="rgb(66, 66, 66)" stroke-width="1px" opacity="0.25"></line><line x1="0" y1="110.625" x2="280" y2="110.625" fill="rgb(0, 0, 0)" stroke="rgb(66, 66, 66)" stroke-width="1px" opacity="0.25"></line><line x1="0" y1="88.5" x2="280" y2="88.5" fill="rgb(0, 0, 0)" stroke="rgb(66, 66, 66)" stroke-width="1px" opacity="0.25"></line><line x1="0" y1="66.375" x2="280" y2="66.375" fill="rgb(0, 0, 0)" stroke="rgb(66, 66, 66)" stroke-width="1px" opacity="0.25"></line><line x1="0" y1="44.25000000000002" x2="280" y2="44.25000000000002" fill="rgb(0, 0, 0)" stroke="rgb(66, 66, 66)" stroke-width="1px" opacity="0.25"></line><line x1="0" y1="22.125" x2="280" y2="22.125" fill="rgb(0, 0, 0)" stroke="rgb(66, 66, 66)" stroke-width="1px" opacity="0.25"></line><line x1="0" y1="0" x2="280" y2="0" fill="rgb(0, 0, 0)" stroke="rgb(66, 66, 66)" stroke-width="1px" opacity="0.25"></line></g></g></g><g><g><line x1="0" y1="199.125" x2="280" y2="199.125" fill="rgb(0, 0, 0)" stroke="rgb(153, 153, 153)" stroke-width="1.5px"></line></g></g><g><g><line x1="25.454545454545457" y1="0" x2="25.454545454545457" y2="177" fill="rgb(0, 0, 0)" stroke="rgb(153, 153, 153)" stroke-width="1.5px"></line></g></g><g><g><g><g><g><path stroke="rgb(51, 187, 238)" stroke-width="2px" d="M25.454545454545457,8.96140506863594L30.545454545454543,36.752842063084245L35.63636363636363,57.03416876829401L40.72727272727273,71.34331257181134L45.81818181818182,84.45371646435622L50.909090909090914,93.58475275702722L56,101.19243074725598L61.090909090909086,108.38580902300471L66.18181818181819,113.84055068540913L71.27272727272727,118.40344325904097L76.36363636363636,120.73419946318936L81.45454545454545,123.42821276129789L86.54545454545455,127.29075018879492L91.63636363636364,130.78835722854225L96.72727272727273,132.89167625704133L101.81818181818183,135.73459409685583L106.9090909090909,137.65072249860586L112,138.4720344649007L117.09090909090908,139.2443978083789L122.18181818181817,140.09699815088945L127.27272727272727,140.8963730609508L132.36363636363637,142.20966182395966L137.45454545454547,143.80355184862424L142.54545454545453,144.39261397197976L147.63636363636363,145.59975835836036L152.72727272727272,146.70782951577598L157.8181818181818,147.5374321834315L162.9090909090909,147.74250511580067L168,148.26636670164334L173.0909090909091,146.42328397197747L178.1818181818182,145.75201643898973L183.27272727272728,148.09830447270576L188.36363636363637,149.0945709032753L193.45454545454547,151.0960982528357L198.54545454545456,151.12788752890805L203.63636363636365,152.74683504091934L208.72727272727275,153.26964428770577L213.8181818181818,154.18584687452795L218.9090909090909,153.02772952025174L224,153.37059357453546L229.0909090909091,151.46342346777038L234.18181818181816,152.04473709318907L239.27272727272725,153.3156631399121" style="fill: none;" fill="none"></path></g><g><path stroke="rgb(204, 51, 17)" stroke-width="2px" d="M35.63636363636363,-0.42346992176404874L40.72727272727273,27.286294071058606L45.81818181818182,45.46010893615356L50.909090909090914,59.55729788954939L56,71.5118929895092L61.090909090909086,81.26064881956728L66.18181818181819,88.44251335116935L71.27272727272727,94.00931830727447L76.36363636363636,99.95075569341726L81.45454545454545,103.910226388243L86.54545454545455,107.93550619810712L91.63636363636364,111.86837713812135L96.72727272727273,114.6865242062095L101.81818181818183,117.77953002149665L106.9090909090909,120.76573360066102L112,123.13257040366474L117.09090909090908,125.36630461844157L122.18181818181817,126.93626701478237L127.27272727272727,129.33328022440963L132.36363636363637,130.6406404128866L137.45454545454547,132.50620713108682L142.54545454545453,134.29580227700248L147.63636363636363,136.84724698757074L152.72727272727272,137.17012166498907L157.8181818181818,139.44890715072353L162.9090909090909,140.34749720376524L168,142.25648604118393L173.0909090909091,142.98347942976827L178.1818181818182,144.1685160298378L183.27272727272728,144.98286613294988L188.36363636363637,145.88350860586738L193.45454545454547,147.05741104009016L198.54545454545456,149.70309373380383L203.63636363636365,150.89196963726855L208.72727272727275,151.0531201975745L213.8181818181818,151.55008364904887L218.9090909090909,152.45445544139747L224,153.2284958886492L229.0909090909091,153.78921812086898L234.18181818181816,154.92797273040733L239.27272727272725,156.64508678301635" style="fill: none;" fill="none"></path></g><g><path stroke="rgb(0, 119, 187)" stroke-width="2px" d="M25.454545454545457,9.199347630143166L30.545454545454543,23.053010277450085L35.63636363636363,34.319105061949514L40.72727272727273,46.03873401677563L45.81818181818182,55.929104557805054L50.909090909090914,62.68795458182181L56,69.06694436283937L61.090909090909086,71.2088015838808L66.18181818181819,74.31926773500273L71.27272727272727,78.91839056912879L76.36363636363636,73.44636070633526L81.45454545454545,77.95720328262895L86.54545454545455,83.48512365106447L91.63636363636364,80.4710848164569L96.72727272727273,86.17719365493684L101.81818181818183,91.25063565507338L106.9090909090909,91.24809230213226L112,88.20110679544239L117.09090909090908,92.74754841498456L122.18181818181817,95.94432830793197L127.27272727272727,97.56054462385517L132.36363636363637,95.54622572530022L137.45454545454547,98.86794048229588L142.54545454545453,103.68792085893253L147.63636363636363,107.81494159435105L152.72727272727272,107.74247310873994L157.8181818181818,110.3376423683281L162.9090909090909,111.10792636588755L168,110.30231302329987L173.0909090909091,108.82959028915008L178.1818181818182,111.22978355437166L183.27272727272728,109.7450531430537L188.36363636363637,108.08437454563676L193.45454545454547,108.85654946013716L198.54545454545456,112.00903661809316L203.63636363636365,112.74149816053782L208.72727272727275,111.15457165640589L213.8181818181818,113.32691559943736L218.9090909090909,107.85651671414638L224,112.13700273624092L229.0909090909091,115.2358655089618L234.18181818181816,115.87198986766441L239.27272727272725,117.82087818236417L244.36363636363635,121.21439321070851L249.45454545454544,118.11283398971472L254.54545454545453,117.48686294733861L259.6363636363636,119.23444326216192L264.72727272727275,120.00589248238275L269.8181818181818,120.7672274154424" style="fill: none;" fill="none"></path></g><g><path stroke="rgb(255, 112, 67)" stroke-width="2px" d="M35.63636363636363,-12.305151365241212L40.72727272727273,5.764358362949926L45.81818181818182,18.253847195870936L50.909090909090914,28.297254349360138L56,36.38507130687051L61.090909090909086,44.07792299658643L66.18181818181819,50.11724916465363L71.27272727272727,54.27240278706994L76.36363636363636,59.92460644887599L81.45454545454545,64.35640575976801L86.54545454545455,68.69958288978468L91.63636363636364,72.40859763465279L96.72727272727273,75.8139131986273L101.81818181818183,78.98360745331328L106.9090909090909,82.55930223223814L112,84.3169271958576L117.09090909090908,86.54224006415356L122.18181818181817,90.21964759741753L127.27272727272727,92.24740346125762L132.36363636363637,93.28381593528655L137.45454545454547,95.11758750172993L142.54545454545453,96.03727141387614L147.63636363636363,98.82338747258191L152.72727272727272,101.29258232135027L157.8181818181818,103.2027496476136L162.9090909090909,105.13644007751772L168,106.68937565628804L173.0909090909091,108.44151708919483L178.1818181818182,109.87735797102407L183.27272727272728,110.76619748773163L188.36363636363637,111.40119545810963L193.45454545454547,112.30804953880711L198.54545454545456,114.0808887810748L203.63636363636365,115.85406283963229L208.72727272727275,115.87261831431255L213.8181818181818,117.69433321537696L218.9090909090909,119.05816275770601L224,120.5731074555808L229.0909090909091,120.9470694630817L234.18181818181816,122.52229523850639L239.27272727272725,124.03703431049905L244.36363636363635,124.87771933546279L249.45454545454544,125.91327912681504L254.54545454545453,126.99929600110393L259.6363636363636,128.44946367537884L264.72727272727275,130.17588056327347L269.8181818181818,130.40659256995897" style="fill: none;" fill="none"></path></g></g></g></g><g opacity="0.2"><g><g><g><path stroke="rgb(51, 187, 238)" stroke-width="2px" d="M25.454545454545457,8.96140506863594L30.545454545454543,53.42770425975323L35.63636363636363,76.50424240529537L40.72727272727273,88.1708656847477L45.81818181818182,101.57065978646278L50.909090909090914,106.21626312285662L56,112.07153199613094L61.090909090909086,118.87382360547781L66.18181818181819,121.88523510843515L71.27272727272727,125.17880695313215L76.36363636363636,124.20919398218393L81.45454545454545,127.45457200706005L86.54545454545455,133.07194447517395L91.63636363636364,136.02791561186314L96.72727272727273,136.0441824272275L101.81818181818183,139.99696581065655L106.9090909090909,140.5241042599082L112,139.70379388332367L117.09090909090908,140.4028251618147L122.18181818181817,141.37582073360682L127.27272727272727,142.09539158642292L132.36363636363637,144.17955175414681L137.45454545454547,146.19435541704297L142.54545454545453,145.27620017901063L147.63636363636363,147.4104663580656L152.72727272727272,148.3699315264821L157.8181818181818,148.78183406218886L162.9090909090909,148.05011419951916L168,149.05215859785676L173.0909090909091,143.65866089612246L178.1818181818182,144.74511536210775L183.27272727272728,151.61773605644703L188.36363636363637,150.58897043019533L193.45454545454547,154.098389133811L198.54545454545456,151.1755714416504L203.63636363636365,155.17525626718998L208.72727272727275,154.05385814979672L213.8181818181818,155.5601507462561L218.9090909090909,151.2905534952879L224,153.8848896548152L229.0909090909091,148.6026683114469L234.18181818181816,152.9167075306177L239.27272727272725,155.22205220907927" style="fill: none;" fill="none"></path></g><g><path stroke="rgb(204, 51, 17)" stroke-width="2px" d="M25.454545454545457,-131.36665472388265L30.545454545454543,6.807987302541733L35.63636363636363,42.37720227241516L40.72727272727273,59.872976526618004L45.81818181818182,69.18784162402153L50.909090909090914,79.05878520011902L56,88.60715525597334L61.090909090909086,95.47442840784788L66.18181818181819,99.03436852991581L71.27272727272727,102.27537488937378L76.36363636363636,108.80902337282896L81.45454545454545,109.82788516581059L86.54545454545455,113.96028267592192L91.63636363636364,117.75997864454985L96.72727272727273,118.9104321822524L101.81818181818183,122.41685731709003L106.9090909090909,125.24377530813217L112,126.68222466856241L117.09090909090908,128.71656565368176L122.18181818181817,129.29106710851192L127.27272727272727,132.9286685809493L132.36363636363637,132.60163767635822L137.45454545454547,135.30452037602663L142.54545454545453,136.98017379641533L147.63636363636363,140.67439591884613L152.72727272727272,137.6544323042035L157.8181818181818,142.86707954853773L162.9090909090909,141.69538090378046L168,145.11996753886342L173.0909090909091,144.07396911084652L178.1818181818182,145.9460705369711L183.27272727272728,146.2043911255896L188.36363636363637,147.23447220772505L193.45454545454547,148.8182646073401L198.54545454545456,153.67161766067147L203.63636363636365,152.67528346180916L208.72727272727275,151.2948460355401L213.8181818181818,152.29552882164717L218.9090909090909,153.81101312488317L224,154.38955655694008L229.0909090909091,154.63030146807432L234.18181818181816,156.63610464334488L239.27272727272725,159.22075786069036" style="fill: none;" fill="none"></path></g><g><path stroke="rgb(0, 119, 187)" stroke-width="2px" d="M25.454545454545457,9.199347630143166L30.545454545454543,31.365207865834236L35.63636363636363,45.13455605506897L40.72727272727273,59.82101766765118L45.81818181818182,68.84197233617306L50.909090909090914,72.03787735104561L56,78.18900181353092L61.090909090909086,74.33164997398853L66.18181818181819,78.90660113096237L71.27272727272727,85.74755197763443L76.36363636363636,65.2879468202591L81.45454545454545,84.69891934096813L86.54545454545455,91.75895458459854L91.63636363636364,75.95593138039112L96.72727272727273,94.72964959591627L101.81818181818183,98.8572204709053L106.9090909090909,91.24427834898233L112,83.63140216469765L117.09090909090908,99.56651823967695L122.18181818181817,100.73920594900846L127.27272727272727,99.98478046059608L132.36363636363637,92.52481365948915L137.45454545454547,103.85044703632593L142.54545454545453,110.91783432662487L147.63636363636363,114.00544336438179L152.72727272727272,107.63377068936825L157.8181818181818,114.23038961738348L162.9090909090909,112.26335117965937L168,109.09389375150204L173.0909090909091,106.62050700187683L178.1818181818182,114.83007265627384L183.27272727272728,107.51795782148838L188.36363636363637,105.59335684776306L193.45454545454547,110.01481177657843L198.54545454545456,116.73776721954346L203.63636363636365,113.8401904553175L208.72727272727275,108.77418192476034L213.8181818181818,116.58543149381876L218.9090909090909,99.6509184166789L224,118.55773175507784L229.0909090909091,119.88415966182947L234.18181818181816,116.826176404953L239.27272727272725,120.74421065300703L244.36363636363635,126.30466575175524L249.45454545454544,113.46049515902996L254.54545454545453,116.54790638387203L259.6363636363636,121.85581373423338L264.72727272727275,121.16306631267071L269.8181818181818,121.90922981500626" style="fill: none;" fill="none"></path></g><g><path stroke="rgb(255, 112, 67)" stroke-width="2px" d="M30.545454545454543,-7.195729628205299L35.63636363636363,10.879438653588295L40.72727272727273,27.014101803302765L45.81818181818182,34.560123816132545L50.909090909090914,42.190902069211006L56,47.95077896118164L61.090909090909086,55.29417461156845L66.18181818181819,59.02408218383789L71.27272727272727,60.44232165813446L76.36363636363636,68.35164687037468L81.45454545454545,70.97998706996441L86.54545454545455,75.2001673579216L91.63636363636364,77.96485340595245L96.72727272727273,80.91788372397423L101.81818181818183,83.73591332137585L106.9090909090909,87.92133128643036L112,86.95291838049889L117.09090909090908,89.87987036257982L122.18181818181817,95.73542276769876L127.27272727272727,95.28892605006695L132.36363636363637,94.83840054273605L137.45454545454547,97.86820864677429L142.54545454545453,97.41678638756275L147.63636363636363,103.00254175812006L152.72727272727272,104.99636406451464L157.8181818181818,106.06799574941397L162.9090909090909,108.0369727537036L168,109.0187775939703L173.0909090909091,111.06972827017307L178.1818181818182,112.03111881762743L183.27272727272728,112.0994565859437L188.36363636363637,112.3536923378706L193.45454545454547,113.66833059489727L198.54545454545456,116.74014756828547L203.63636363636365,118.51382388174534L208.72727272727275,115.9004515260458L213.8181818181818,120.42690555006266L218.9090909090909,121.1039070636034L224,122.84552449733019L229.0909090909091,121.50801247358322L234.18181818181816,124.88513389974833L239.27272727272725,126.30914291739464L244.36363636363635,126.13874687254429L249.45454545454544,127.46661881357431L254.54545454545453,128.62832131236792L259.6363636363636,130.62471518665552L264.72727272727275,132.76550589501858L269.8181818181818,130.75266057997942" style="fill: none;" fill="none"></path></g></g></g></g></g></g><g transform="translate(50, 177)" clip-path="url(#clip_1)"><clipPath id="clip_1"><rect width="280" height="23"></rect></clipPath><g><g><line x1="0" y1="0" x2="0" y2="5" style="visibility: inherit;" fill="rgb(0, 0, 0)" stroke="rgb(204, 204, 204)" stroke-width="1px"></line><line x1="25.454545454545457" y1="0" x2="25.454545454545457" y2="5" style="visibility: inherit;" fill="rgb(0, 0, 0)" stroke="rgb(204, 204, 204)" stroke-width="1px"></line><line x1="50.909090909090914" y1="0" x2="50.909090909090914" y2="5" style="visibility: inherit;" fill="rgb(0, 0, 0)" stroke="rgb(204, 204, 204)" stroke-width="1px"></line><line x1="76.36363636363636" y1="0" x2="76.36363636363636" y2="5" style="visibility: inherit;" fill="rgb(0, 0, 0)" stroke="rgb(204, 204, 204)" stroke-width="1px"></line><line x1="101.81818181818183" y1="0" x2="101.81818181818183" y2="5" style="visibility: inherit;" fill="rgb(0, 0, 0)" stroke="rgb(204, 204, 204)" stroke-width="1px"></line><line x1="127.27272727272727" y1="0" x2="127.27272727272727" y2="5" style="visibility: inherit;" fill="rgb(0, 0, 0)" stroke="rgb(204, 204, 204)" stroke-width="1px"></line><line x1="152.72727272727272" y1="0" x2="152.72727272727272" y2="5" style="visibility: inherit;" fill="rgb(0, 0, 0)" stroke="rgb(204, 204, 204)" stroke-width="1px"></line><line x1="178.1818181818182" y1="0" x2="178.1818181818182" y2="5" style="visibility: inherit;" fill="rgb(0, 0, 0)" stroke="rgb(204, 204, 204)" stroke-width="1px"></line><line x1="203.63636363636365" y1="0" x2="203.63636363636365" y2="5" style="visibility: inherit;" fill="rgb(0, 0, 0)" stroke="rgb(204, 204, 204)" stroke-width="1px"></line><line x1="229.0909090909091" y1="0" x2="229.0909090909091" y2="5" style="visibility: inherit;" fill="rgb(0, 0, 0)" stroke="rgb(204, 204, 204)" stroke-width="1px"></line><line x1="254.54545454545453" y1="0" x2="254.54545454545453" y2="5" style="visibility: inherit;" fill="rgb(0, 0, 0)" stroke="rgb(204, 204, 204)" stroke-width="1px"></line><line x1="280" y1="0" x2="280" y2="5" style="visibility: inherit;" fill="rgb(0, 0, 0)" stroke="rgb(204, 204, 204)" stroke-width="1px"></line></g><g transform="translate(0, 8)"><text x="0" y="0" dx="0em" dy="0.95em" style="text-anchor: middle; visibility: hidden; font-family: Roboto, sans-serif; font-size: 12px; font-weight: 200;" fill="rgb(33, 33, 33)" stroke="none" stroke-width="1px">-5</text><text x="25.454545454545457" y="0" dx="0em" dy="0.95em" style="text-anchor: middle; visibility: inherit; font-family: Roboto, sans-serif; font-size: 12px; font-weight: 200;" fill="rgb(33, 33, 33)" stroke="none" stroke-width="1px">0</text><text x="50.909090909090914" y="0" dx="0em" dy="0.95em" style="text-anchor: middle; visibility: inherit; font-family: Roboto, sans-serif; font-size: 12px; font-weight: 200;" fill="rgb(33, 33, 33)" stroke="none" stroke-width="1px">5</text><text x="76.36363636363636" y="0" dx="0em" dy="0.95em" style="text-anchor: middle; visibility: inherit; font-family: Roboto, sans-serif; font-size: 12px; font-weight: 200;" fill="rgb(33, 33, 33)" stroke="none" stroke-width="1px">10</text><text x="101.81818181818183" y="0" dx="0em" dy="0.95em" style="text-anchor: middle; visibility: inherit; font-family: Roboto, sans-serif; font-size: 12px; font-weight: 200;" fill="rgb(33, 33, 33)" stroke="none" stroke-width="1px">15</text><text x="127.27272727272727" y="0" dx="0em" dy="0.95em" style="text-anchor: middle; visibility: inherit; font-family: Roboto, sans-serif; font-size: 12px; font-weight: 200;" fill="rgb(33, 33, 33)" stroke="none" stroke-width="1px">20</text><text x="152.72727272727272" y="0" dx="0em" dy="0.95em" style="text-anchor: middle; visibility: inherit; font-family: Roboto, sans-serif; font-size: 12px; font-weight: 200;" fill="rgb(33, 33, 33)" stroke="none" stroke-width="1px">25</text><text x="178.1818181818182" y="0" dx="0em" dy="0.95em" style="text-anchor: middle; visibility: inherit; font-family: Roboto, sans-serif; font-size: 12px; font-weight: 200;" fill="rgb(33, 33, 33)" stroke="none" stroke-width="1px">30</text><text x="203.63636363636365" y="0" dx="0em" dy="0.95em" style="text-anchor: middle; visibility: inherit; font-family: Roboto, sans-serif; font-size: 12px; font-weight: 200;" fill="rgb(33, 33, 33)" stroke="none" stroke-width="1px">35</text><text x="229.0909090909091" y="0" dx="0em" dy="0.95em" style="text-anchor: middle; visibility: inherit; font-family: Roboto, sans-serif; font-size: 12px; font-weight: 200;" fill="rgb(33, 33, 33)" stroke="none" stroke-width="1px">40</text><text x="254.54545454545453" y="0" dx="0em" dy="0.95em" style="text-anchor: middle; visibility: inherit; font-family: Roboto, sans-serif; font-size: 12px; font-weight: 200;" fill="rgb(33, 33, 33)" stroke="none" stroke-width="1px">45</text><text x="280" y="0" dx="0em" dy="0.95em" style="text-anchor: middle; visibility: hidden; font-family: Roboto, sans-serif; font-size: 12px; font-weight: 200;" fill="rgb(33, 33, 33)" stroke="none" stroke-width="1px">50</text></g><line x1="0" y1="0" x2="280" y2="0" fill="rgb(0, 0, 0)" stroke="rgb(204, 204, 204)" stroke-width="1px"></line></g></g></g></g></svg>