<svg viewBox="0 0 330 200" xmlns="http://www.w3.org/2000/svg"><g><g><g><g><g><line x1="50" y1="177" x2="45" y2="177" style="visibility: inherit;" fill="rgb(0, 0, 0)" stroke="rgb(204, 204, 204)" stroke-width="1px"></line><line x1="50" y1="154.875" x2="45" y2="154.875" style="visibility: inherit;" fill="rgb(0, 0, 0)" stroke="rgb(204, 204, 204)" stroke-width="1px"></line><line x1="50" y1="132.75" x2="45" y2="132.75" style="visibility: inherit;" fill="rgb(0, 0, 0)" stroke="rgb(204, 204, 204)" stroke-width="1px"></line><line x1="50" y1="110.625" x2="45" y2="110.625" style="visibility: inherit;" fill="rgb(0, 0, 0)" stroke="rgb(204, 204, 204)" stroke-width="1px"></line><line x1="50" y1="88.5" x2="45" y2="88.5" style="visibility: inherit;" fill="rgb(0, 0, 0)" stroke="rgb(204, 204, 204)" stroke-width="1px"></line><line x1="50" y1="66.375" x2="45" y2="66.375" style="visibility: inherit;" fill="rgb(0, 0, 0)" stroke="rgb(204, 204, 204)" stroke-width="1px"></line><line x1="50" y1="44.25000000000002" x2="45" y2="44.25000000000002" style="visibility: inherit;" fill="rgb(0, 0, 0)" stroke="rgb(204, 204, 204)" stroke-width="1px"></line><line x1="50" y1="22.125" x2="45" y2="22.125" style="visibility: inherit;" fill="rgb(0, 0, 0)" stroke="rgb(204, 204, 204)" stroke-width="1px"></line><line x1="50" y1="0" x2="45" y2="0" style="visibility: inherit;" fill="rgb(0, 0, 0)" stroke="rgb(204, 204, 204)" stroke-width="1px"></line></g><g transform="translate(40, 0)"><text x="0" y="177" dx="0em" dy="0.3em" style="text-anchor: end; visibility: hidden; font-family: Roboto, sans-serif; font-size: 12px; font-weight: 200;" fill="rgb(33, 33, 33)" stroke="none" stroke-width="1px">0.05</text><text x="0" y="154.875" dx="0em" dy="0.3em" style="text-anchor: end; visibility: inherit; font-family: Roboto, sans-serif; font-size: 12px; font-weight: 200;" fill="rgb(33, 33, 33)" stroke="none" stroke-width="1px">0.1</text><text x="0" y="132.75" dx="0em" dy="0.3em" style="text-anchor: end; visibility: hidden; font-family: Roboto, sans-serif; font-size: 12px; font-weight: 200;" fill="rgb(33, 33, 33)" stroke="none" stroke-width="1px">0.15</text><text x="0" y="110.625" dx="0em" dy="0.3em" style="text-anchor: end; visibility: inherit; font-family: Roboto, sans-serif; font-size: 12px; font-weight: 200;" fill="rgb(33, 33, 33)" stroke="none" stroke-width="1px">0.2</text><text x="0" y="88.5" dx="0em" dy="0.3em" style="text-anchor: end; visibility: hidden; font-family: Roboto, sans-serif; font-size: 12px; font-weight: 200;" fill="rgb(33, 33, 33)" stroke="none" stroke-width="1px">0.25</text><text x="0" y="66.375" dx="0em" dy="0.3em" style="text-anchor: end; visibility: inherit; font-family: Roboto, sans-serif; font-size: 12px; font-weight: 200;" fill="rgb(33, 33, 33)" stroke="none" stroke-width="1px">0.3</text><text x="0" y="44.25000000000002" dx="0em" dy="0.3em" style="text-anchor: end; visibility: hidden; font-family: Roboto, sans-serif; font-size: 12px; font-weight: 200;" fill="rgb(33, 33, 33)" stroke="none" stroke-width="1px">0.35</text><text x="0" y="22.125" dx="0em" dy="0.3em" style="text-anchor: end; visibility: inherit; font-family: Roboto, sans-serif; font-size: 12px; font-weight: 200;" fill="rgb(33, 33, 33)" stroke="none" stroke-width="1px">0.4</text><text x="0" y="0" dx="0em" dy="0.3em" style="text-anchor: end; visibility: hidden; font-family: Roboto, sans-serif; font-size: 12px; font-weight: 200;" fill="rgb(33, 33, 33)" stroke="none" stroke-width="1px">0.45</text></g><line x1="50" y1="0" x2="50" y2="177" fill="rgb(0, 0, 0)" stroke="rgb(204, 204, 204)" stroke-width="1px"></line></g></g><g transform="translate(50, 0)" clip-path="url(#clip_0)"><clipPath id="clip_0"><rect width="280" height="177"></rect></clipPath><g><g><g><line x1="0" y1="0" x2="0" y2="177" fill="rgb(0, 0, 0)" stroke="rgb(66, 66, 66)" stroke-width="1px" opacity="0.25"></line><line x1="31.11111111111111" y1="0" x2="31.11111111111111" y2="177" fill="rgb(0, 0, 0)" stroke="rgb(66, 66, 66)" stroke-width="1px" opacity="0.25"></line><line x1="62.22222222222222" y1="0" x2="62.22222222222222" y2="177" fill="rgb(0, 0, 0)" stroke="rgb(66, 66, 66)" stroke-width="1px" opacity="0.25"></line><line x1="93.33333333333333" y1="0" x2="93.33333333333333" y2="177" fill="rgb(0, 0, 0)" stroke="rgb(66, 66, 66)" stroke-width="1px" opacity="0.25"></line><line x1="124.44444444444444" y1="0" x2="124.44444444444444" y2="177" fill="rgb(0, 0, 0)" stroke="rgb(66, 66, 66)" stroke-width="1px" opacity="0.25"></line><line x1="155.55555555555557" y1="0" x2="155.55555555555557" y2="177" fill="rgb(0, 0, 0)" stroke="rgb(66, 66, 66)" stroke-width="1px" opacity="0.25"></line><line x1="186.66666666666666" y1="0" x2="186.66666666666666" y2="177" fill="rgb(0, 0, 0)" stroke="rgb(66, 66, 66)" stroke-width="1px" opacity="0.25"></line><line x1="217.77777777777777" y1="0" x2="217.77777777777777" y2="177" fill="rgb(0, 0, 0)" stroke="rgb(66, 66, 66)" stroke-width="1px" opacity="0.25"></line><line x1="248.88888888888889" y1="0" x2="248.88888888888889" y2="177" fill="rgb(0, 0, 0)" stroke="rgb(66, 66, 66)" stroke-width="1px" opacity="0.25"></line><line x1="280" y1="0" x2="280" y2="177" fill="rgb(0, 0, 0)" stroke="rgb(66, 66, 66)" stroke-width="1px" opacity="0.25"></line></g><g><line x1="0" y1="177" x2="280" y2="177" fill="rgb(0, 0, 0)" stroke="rgb(66, 66, 66)" stroke-width="1px" opacity="0.25"></line><line x1="0" y1="154.875" x2="280" y2="154.875" fill="rgb(0, 0, 0)" stroke="rgb(66, 66, 66)" stroke-width="1px" opacity="0.25"></line><line x1="0" y1="132.75" x2="280" y2="132.75" fill="rgb(0, 0, 0)" stroke="rgb(66, 66, 66)" stroke-width="1px" opacity="0.25"></line><line x1="0" y1="110.625" x2="280" y2="110.625" fill="rgb(0, 0, 0)" stroke="rgb(66, 66, 66)" stroke-width="1px" opacity="0.25"></line><line x1="0" y1="88.5" x2="280" y2="88.5" fill="rgb(0, 0, 0)" stroke="rgb(66, 66, 66)" stroke-width="1px" opacity="0.25"></line><line x1="0" y1="66.375" x2="280" y2="66.375" fill="rgb(0, 0, 0)" stroke="rgb(66, 66, 66)" stroke-width="1px" opacity="0.25"></line><line x1="0" y1="44.25000000000002" x2="280" y2="44.25000000000002" fill="rgb(0, 0, 0)" stroke="rgb(66, 66, 66)" stroke-width="1px" opacity="0.25"></line><line x1="0" y1="22.125" x2="280" y2="22.125" fill="rgb(0, 0, 0)" stroke="rgb(66, 66, 66)" stroke-width="1px" opacity="0.25"></line><line x1="0" y1="0" x2="280" y2="0" fill="rgb(0, 0, 0)" stroke="rgb(66, 66, 66)" stroke-width="1px" opacity="0.25"></line></g></g></g><g><g><line x1="0" y1="199.125" x2="280" y2="199.125" fill="rgb(0, 0, 0)" stroke="rgb(153, 153, 153)" stroke-width="1.5px"></line></g></g><g><g><line x1="31.11111111111111" y1="0" x2="31.11111111111111" y2="177" fill="rgb(0, 0, 0)" stroke="rgb(153, 153, 153)" stroke-width="1.5px"></line></g></g><g><g><g><g><g><path stroke="rgb(255, 112, 67)" stroke-width="2px" d="M37.333333333333336,-11.917568312615733L40.44444444444444,10.911098804544007L43.55555555555556,26.523151563510233L46.666666666666664,39.97963745739594L49.77777777777778,51.00534458268826L52.888888888888886,60.247805252165314L56,68.19665605545971L59.111111111111114,74.21301846028686L62.22222222222222,80.46762247991072L65.33333333333333,84.39215398820382L68.44444444444444,88.14335181581939L71.55555555555554,92.31304124529338L74.66666666666667,94.75239609469341L77.77777777777779,97.70210791970642L80.88888888888889,97.74728965119243L84,100.2037356381121L87.11111111111111,103.20889104980587L90.22222222222223,105.14181646808252L93.33333333333333,106.81912720379108L96.44444444444444,108.19656035833235L99.55555555555556,108.56048938762855L102.66666666666666,109.4335560661089L105.77777777777777,111.25623407958895L108.88888888888889,112.2079527191521L112,113.75354743016368L115.1111111111111,115.41766976692473L118.22222222222223,116.58202848646086L121.33333333333334,117.85462543674542L124.44444444444444,118.75184431239946L127.55555555555556,118.70015497729067L130.66666666666666,119.31551752778785L133.77777777777777,119.67615523354074L136.88888888888889,121.05100942481224L140,122.22858543018357L143.1111111111111,122.97418984528784L146.22222222222223,123.34722758524893L149.33333333333334,123.56690406963462L152.44444444444443,124.35020811462942L155.55555555555557,125.22292972339379L158.66666666666666,125.50529159460058L161.77777777777777,126.42539026676512L164.88888888888889,125.9387575913951L168,126.10770581542134L171.11111111111111,127.55538944836752L174.22222222222223,128.2545900102895L177.33333333333331,128.40824715235826L180.44444444444446,128.90260036850046L183.55555555555554,129.92683149913225L186.66666666666666,130.00264121019447L189.7777777777778,130.7824534143447L192.88888888888889,131.39039228054622L196,131.5848545056151L199.11111111111111,131.86877079138574L202.22222222222223,132.62753485935608L205.33333333333331,132.56363198636578L208.44444444444446,133.18121151315344L211.55555555555554,133.22211851291163L214.66666666666669,133.488875395729L217.77777777777777,134.50176693896884L220.88888888888889,134.5094139689233L224,133.95764677012122L227.11111111111111,134.71742972602937L230.2222222222222,134.69965889376698L233.33333333333334,135.2748786856073L236.44444444444446,135.94892860051021L239.55555555555554,135.43247085568922L242.66666666666669,136.1710916951753L245.77777777777777,137.1460591641341L248.88888888888889,136.9390916846558L252,137.60453024043827L255.11111111111111,136.92357133349293L258.22222222222223,138.0480487169058L261.3333333333333,138.5010185194749L264.44444444444446,137.6720321925127L267.55555555555554,138.17586123357077L270.6666666666667,138.16968919879113L273.77777777777777,137.81729455915638" style="fill: none;" fill="none"></path></g><g><path stroke="rgb(187, 187, 187)" stroke-width="2px" d="M43.55555555555556,-12.481062800260855L46.666666666666664,6.417283147405426L49.77777777777778,21.39251109942547L52.888888888888886,32.93242116069201L56,43.20522674595245L59.111111111111114,51.60787255242999L62.22222222222222,57.69204346499038L65.33333333333333,63.35429860598681L68.44444444444444,68.72196553238197L71.55555555555554,73.14088706413891L74.66666666666667,75.76110205739566L77.77777777777779,79.31156766737581L80.88888888888889,82.35137320398124L84,85.98539726872731L87.11111111111111,87.60800185448099L90.22222222222223,89.66883690858683L93.33333333333333,92.08176168058084L96.44444444444444,94.53158443310538L99.55555555555556,96.23765848336903L102.66666666666666,98.58642027348198L105.77777777777777,100.68635576188221L108.88888888888889,101.56803363290939L112,102.84449340052898L115.1111111111111,104.24453064435964L118.22222222222223,106.09957835559408L121.33333333333334,106.75936166915747L124.44444444444444,108.32605734967436L127.55555555555556,109.43978866561802L130.66666666666666,110.66738696074124L133.77777777777777,111.54556412635398L136.88888888888889,112.08306790702568L140,112.61297305661449L143.1111111111111,114.096704144946L146.22222222222223,115.77065910106866L149.33333333333334,116.74596148473334L152.44444444444443,116.79012195320257L155.55555555555557,117.36002086179266L158.66666666666666,118.16229723478307L161.77777777777777,119.1032431222828L164.88888888888889,120.99681012948369L168,122.88084403963607L171.11111111111111,123.8097721505251L174.22222222222223,123.6239063333255L177.33333333333331,123.99096749668838L180.44444444444446,125.05988489954436L183.55555555555554,126.01228691858084L186.66666666666666,126.89127446247784L189.7777777777778,127.15448388477432L192.88888888888889,127.2018162937181L196,128.85535960979735L199.11111111111111,128.79994489006683L202.22222222222223,129.53970936687307L205.33333333333331,130.83945178539494L208.44444444444446,131.31036357611984L211.55555555555554,132.32693371492974L214.66666666666669,132.9306090850732L217.77777777777777,133.70939775580774L220.88888888888889,134.28973027035363L224,135.61885501125315L227.11111111111111,135.76933656143464L230.2222222222222,136.5376464009721L233.33333333333334,136.75491624357934L236.44444444444446,137.26708081235074L239.55555555555554,138.03723803680884L242.66666666666669,138.12997609687895L245.77777777777777,138.6018120307508L248.88888888888889,139.84619731955428L252,139.56893829555926L255.11111111111111,139.89320902259124L258.22222222222223,140.78716407555922L261.3333333333333,140.98372616969695L264.44444444444446,140.95472799303028L267.55555555555554,141.56564620472128L270.6666666666667,142.02238927088462L273.77777777777777,142.7777139324086" style="fill: none;" fill="none"></path></g><g><path stroke="rgb(51, 187, 238)" stroke-width="2px" d="M31.11111111111111,8.96140506863594L34.22222222222222,36.752842063084245L37.333333333333336,57.03416876829401L40.44444444444444,71.34331257181134L43.55555555555556,84.45371646435622L46.666666666666664,93.58475275702722L49.77777777777778,101.19243074725598L52.888888888888886,108.38580902300471L56,113.84055068540913L59.111111111111114,118.40344325904097L62.22222222222222,120.73419946318936L65.33333333333333,123.42821276129789L68.44444444444444,127.29075018879492L71.55555555555554,130.78835722854225L74.66666666666667,132.89167625704133L77.77777777777779,135.73459409685583L80.88888888888889,137.65072249860586L84,138.4720344649007L87.11111111111111,139.2443978083789L90.22222222222223,140.09699815088945L93.33333333333333,140.8963730609508L96.44444444444444,142.20966182395966L99.55555555555556,143.80355184862424L102.66666666666666,144.39261397197976L105.77777777777777,145.59975835836036L108.88888888888889,146.70782951577598L112,147.5374321834315L115.1111111111111,147.74250511580067L118.22222222222223,148.26636670164334L121.33333333333334,146.42328397197747L124.44444444444444,145.75201643898973L127.55555555555556,148.09830447270576L130.66666666666666,149.0945709032753L133.77777777777777,151.0960982528357L136.88888888888889,151.12788752890805L140,152.74683504091934L143.1111111111111,153.26964428770577L146.22222222222223,154.18584687452795L149.33333333333334,153.02772952025174L152.44444444444443,153.37059357453546L155.55555555555557,151.46342346777038L158.66666666666666,152.04473709318907L161.77777777777777,153.3156631399121" style="fill: none;" fill="none"></path></g><g><path stroke="rgb(204, 51, 17)" stroke-width="2px" d="M37.333333333333336,-0.42346992176404874L40.44444444444444,27.286294071058606L43.55555555555556,45.46010893615356L46.666666666666664,59.55729788954939L49.77777777777778,71.5118929895092L52.888888888888886,81.26064881956728L56,88.44251335116935L59.111111111111114,94.00931830727447L62.22222222222222,99.95075569341726L65.33333333333333,103.910226388243L68.44444444444444,107.93550619810712L71.55555555555554,111.86837713812135L74.66666666666667,114.6865242062095L77.77777777777779,117.77953002149665L80.88888888888889,120.76573360066102L84,123.13257040366474L87.11111111111111,125.36630461844157L90.22222222222223,126.93626701478237L93.33333333333333,129.33328022440963L96.44444444444444,130.6406404128866L99.55555555555556,132.50620713108682L102.66666666666666,134.29580227700248L105.77777777777777,136.84724698757074L108.88888888888889,137.17012166498907L112,139.44890715072353L115.1111111111111,140.34749720376524L118.22222222222223,142.25648604118393L121.33333333333334,142.98347942976827L124.44444444444444,144.1685160298378L127.55555555555556,144.98286613294988L130.66666666666666,145.88350860586738L133.77777777777777,147.05741104009016L136.88888888888889,149.70309373380383L140,150.89196963726855L143.1111111111111,151.0531201975745L146.22222222222223,151.55008364904887L149.33333333333334,152.45445544139747L152.44444444444443,153.2284958886492L155.55555555555557,153.78921812086898L158.66666666666666,154.92797273040733L161.77777777777777,156.64508678301635" style="fill: none;" fill="none"></path></g></g></g></g><g opacity="0.2"><g><g><g><path stroke="rgb(255, 112, 67)" stroke-width="2px" d="M34.22222222222222,-9.191622376441956L37.333333333333336,22.66401118040085L40.44444444444444,37.75761133432388L43.55555555555556,46.90624764561653L46.666666666666664,58.59480178356171L49.77777777777778,66.77228218317032L52.888888888888886,73.72340163588524L56,79.91966700553894L59.111111111111114,83.14661546051502L62.22222222222222,89.79279971122742L65.33333333333333,90.2575941234827L68.44444444444444,93.75790024548769L71.55555555555554,98.55940653383732L74.66666666666667,98.40856099873781L77.77777777777779,102.12459529191256L80.88888888888889,97.81504312902689L84,103.88778092712164L87.11111111111111,107.7161663621664L90.22222222222223,108.04102791845798L93.33333333333333,109.33500131964684L96.44444444444444,110.26266476511955L99.55555555555556,109.10637574642897L102.66666666666666,110.74314574152231L105.77777777777777,113.99023814499378L108.88888888888889,113.63552661985159L112,116.07193554192781L115.1111111111111,117.91385071724653L118.22222222222223,118.32856549322605L121.33333333333334,119.7635201588273L124.44444444444444,120.09767232835293L127.55555555555556,118.62262098491192L130.66666666666666,120.23856128007174L133.77777777777777,120.21711176633835L136.88888888888889,123.11329065263271L140,123.99494940787554L143.1111111111111,124.0925964564085L146.22222222222223,123.90678419172764L149.33333333333334,123.89641879498959L152.44444444444443,125.52516417950392L155.55555555555557,126.53201213479042L158.66666666666666,125.92883440107107L161.77777777777777,127.80553827434778L164.88888888888889,125.20880857855082L168,126.36112815141678L171.11111111111111,129.72691489756107L174.22222222222223,129.30339085310698L177.33333333333331,128.63873286545277L180.44444444444446,129.64413019269705L183.55555555555554,131.4631781950593L186.66666666666666,130.1163557767868L189.7777777777778,131.95217172056437L192.88888888888889,132.3023005798459L196,131.87654784321785L199.11111111111111,132.29464522004128L202.22222222222223,133.76568096131086L205.33333333333331,132.46777767688036L208.44444444444446,134.1075808033347L211.55555555555554,133.28347901254892L214.66666666666669,133.88901071995497L217.77777777777777,136.02110425382853L220.88888888888889,134.52088451385498L224,133.1299959719181L227.11111111111111,135.8571041598916L230.2222222222222,134.67300264537334L233.33333333333334,136.1377083733678L236.44444444444446,136.96000347286463L239.55555555555554,134.65778423845768L242.66666666666669,137.27902295440435L245.77777777777777,138.6085103675723L248.88888888888889,136.62864046543837L252,138.60268807411194L255.11111111111111,135.9021329730749L258.22222222222223,139.7347647920251L261.3333333333333,139.1804732233286L264.44444444444446,136.42855270206928L267.55555555555554,138.9316047951579L270.6666666666667,138.1604311466217L273.77777777777777,137.28870259970427" style="fill: none;" fill="none"></path></g><g><path stroke="rgb(187, 187, 187)" stroke-width="2px" d="M37.333333333333336,-18.49650451540947L40.44444444444444,3.8412947058677673L43.55555555555556,21.24420239031315L46.666666666666664,32.560498997569084L49.77777777777778,42.807326674461365L52.888888888888886,49.757720813155174L56,58.355619594454765L59.111111111111114,64.08482229709625L62.22222222222222,66.76311685144901L65.33333333333333,71.8168675750494L68.44444444444444,76.75593955814838L71.55555555555554,79.76061223447323L74.66666666666667,79.6883445829153L77.77777777777779,84.63476201891899L80.88888888888889,86.90979516506195L84,91.43551068753004L87.11111111111111,90.04166154563427L90.22222222222223,92.75990112125874L93.33333333333333,95.70101650804281L96.44444444444444,98.20623794943094L99.55555555555556,98.79673587530851L102.66666666666666,102.10953513532877L105.77777777777777,103.83624406903982L108.88888888888889,102.89054667949677L112,104.75917978584766L115.1111111111111,106.34458436071873L118.22222222222223,108.88214821368456L121.33333333333334,107.74903627485037L124.44444444444444,110.67610035091639L127.55555555555556,111.11038541793823L130.66666666666666,112.50878425687551L133.77777777777777,112.86282981187105L136.88888888888889,112.88932355493307L140,113.40783076733351L143.1111111111111,116.32230075448751L146.22222222222223,118.2815915197134L149.33333333333334,118.20891505479813L152.44444444444443,116.85636265575886L155.55555555555557,118.21486922353506L158.66666666666666,119.36571179330349L161.77777777777777,120.5146619528532L164.88888888888889,123.83716063946486L168,125.70689490437508L171.11111111111111,125.20316431671381L174.22222222222223,123.34510760754347L177.33333333333331,124.5415592417121L180.44444444444446,126.66326100379229L183.55555555555554,127.44088994711637L186.66666666666666,128.20975577831268L189.7777777777778,127.54929801821709L192.88888888888889,127.27281490713358L196,131.3356745839119L199.11111111111111,128.71682281047106L202.22222222222223,130.6493560820818L205.33333333333331,132.789065413177L208.44444444444446,132.01673126220703L211.55555555555554,133.85178892314434L214.66666666666669,133.83612214028835L217.77777777777777,134.87758076190948L220.88888888888889,135.16022904217243L224,137.61254212260246L227.11111111111111,135.99505888670683L230.2222222222222,137.69011116027832L233.33333333333334,137.08082100749016L236.44444444444446,138.0353276655078L239.55555555555554,139.19247387349606L242.66666666666669,138.26908318698406L245.77777777777777,139.3095659315586L248.88888888888889,141.71277525275946L252,139.15304975956678L255.11111111111111,140.37961511313915L258.22222222222223,142.12809665501118L261.3333333333333,141.27856931090355L264.44444444444446,140.9112307280302L267.55555555555554,142.4820235222578L270.6666666666667,142.70750387012959L273.77777777777777,143.91070092469454" style="fill: none;" fill="none"></path></g><g><path stroke="rgb(51, 187, 238)" stroke-width="2px" d="M31.11111111111111,8.96140506863594L34.22222222222222,53.42770425975323L37.333333333333336,76.50424240529537L40.44444444444444,88.1708656847477L43.55555555555556,101.57065978646278L46.666666666666664,106.21626312285662L49.77777777777778,112.07153199613094L52.888888888888886,118.87382360547781L56,121.88523510843515L59.111111111111114,125.17880695313215L62.22222222222222,124.20919398218393L65.33333333333333,127.45457200706005L68.44444444444444,133.07194447517395L71.55555555555554,136.02791561186314L74.66666666666667,136.0441824272275L77.77777777777779,139.99696581065655L80.88888888888889,140.5241042599082L84,139.70379388332367L87.11111111111111,140.4028251618147L90.22222222222223,141.37582073360682L93.33333333333333,142.09539158642292L96.44444444444444,144.17955175414681L99.55555555555556,146.19435541704297L102.66666666666666,145.27620017901063L105.77777777777777,147.4104663580656L108.88888888888889,148.3699315264821L112,148.78183406218886L115.1111111111111,148.05011419951916L118.22222222222223,149.05215859785676L121.33333333333334,143.65866089612246L124.44444444444444,144.74511536210775L127.55555555555556,151.61773605644703L130.66666666666666,150.58897043019533L133.77777777777777,154.098389133811L136.88888888888889,151.1755714416504L140,155.17525626718998L143.1111111111111,154.05385814979672L146.22222222222223,155.5601507462561L149.33333333333334,151.2905534952879L152.44444444444443,153.8848896548152L155.55555555555557,148.6026683114469L158.66666666666666,152.9167075306177L161.77777777777777,155.22205220907927" style="fill: none;" fill="none"></path></g><g><path stroke="rgb(204, 51, 17)" stroke-width="2px" d="M31.11111111111111,-131.36665472388265L34.22222222222222,6.807987302541733L37.333333333333336,42.37720227241516L40.44444444444444,59.872976526618004L43.55555555555556,69.18784162402153L46.666666666666664,79.05878520011902L49.77777777777778,88.60715525597334L52.888888888888886,95.47442840784788L56,99.03436852991581L59.111111111111114,102.27537488937378L62.22222222222222,108.80902337282896L65.33333333333333,109.82788516581059L68.44444444444444,113.96028267592192L71.55555555555554,117.75997864454985L74.66666666666667,118.9104321822524L77.77777777777779,122.41685731709003L80.88888888888889,125.24377530813217L84,126.68222466856241L87.11111111111111,128.71656565368176L90.22222222222223,129.29106710851192L93.33333333333333,132.9286685809493L96.44444444444444,132.60163767635822L99.55555555555556,135.30452037602663L102.66666666666666,136.98017379641533L105.77777777777777,140.67439591884613L108.88888888888889,137.6544323042035L112,142.86707954853773L115.1111111111111,141.69538090378046L118.22222222222223,145.11996753886342L121.33333333333334,144.07396911084652L124.44444444444444,145.9460705369711L127.55555555555556,146.2043911255896L130.66666666666666,147.23447220772505L133.77777777777777,148.8182646073401L136.88888888888889,153.67161766067147L140,152.67528346180916L143.1111111111111,151.2948460355401L146.22222222222223,152.29552882164717L149.33333333333334,153.81101312488317L152.44444444444443,154.38955655694008L155.55555555555557,154.63030146807432L158.66666666666666,156.63610464334488L161.77777777777777,159.22075786069036" style="fill: none;" fill="none"></path></g></g></g></g></g></g><g transform="translate(50, 177)" clip-path="url(#clip_1)"><clipPath id="clip_1"><rect width="280" height="23"></rect></clipPath><g><g><line x1="0" y1="0" x2="0" y2="5" style="visibility: inherit;" fill="rgb(0, 0, 0)" stroke="rgb(204, 204, 204)" stroke-width="1px"></line><line x1="31.11111111111111" y1="0" x2="31.11111111111111" y2="5" style="visibility: inherit;" fill="rgb(0, 0, 0)" stroke="rgb(204, 204, 204)" stroke-width="1px"></line><line x1="62.22222222222222" y1="0" x2="62.22222222222222" y2="5" style="visibility: inherit;" fill="rgb(0, 0, 0)" stroke="rgb(204, 204, 204)" stroke-width="1px"></line><line x1="93.33333333333333" y1="0" x2="93.33333333333333" y2="5" style="visibility: inherit;" fill="rgb(0, 0, 0)" stroke="rgb(204, 204, 204)" stroke-width="1px"></line><line x1="124.44444444444444" y1="0" x2="124.44444444444444" y2="5" style="visibility: inherit;" fill="rgb(0, 0, 0)" stroke="rgb(204, 204, 204)" stroke-width="1px"></line><line x1="155.55555555555557" y1="0" x2="155.55555555555557" y2="5" style="visibility: inherit;" fill="rgb(0, 0, 0)" stroke="rgb(204, 204, 204)" stroke-width="1px"></line><line x1="186.66666666666666" y1="0" x2="186.66666666666666" y2="5" style="visibility: inherit;" fill="rgb(0, 0, 0)" stroke="rgb(204, 204, 204)" stroke-width="1px"></line><line x1="217.77777777777777" y1="0" x2="217.77777777777777" y2="5" style="visibility: inherit;" fill="rgb(0, 0, 0)" stroke="rgb(204, 204, 204)" stroke-width="1px"></line><line x1="248.88888888888889" y1="0" x2="248.88888888888889" y2="5" style="visibility: inherit;" fill="rgb(0, 0, 0)" stroke="rgb(204, 204, 204)" stroke-width="1px"></line><line x1="280" y1="0" x2="280" y2="5" style="visibility: inherit;" fill="rgb(0, 0, 0)" stroke="rgb(204, 204, 204)" stroke-width="1px"></line></g><g transform="translate(0, 8)"><text x="0" y="0" dx="0em" dy="0.95em" style="text-anchor: middle; visibility: hidden; font-family: Roboto, sans-serif; font-size: 12px; font-weight: 200;" fill="rgb(33, 33, 33)" stroke="none" stroke-width="1px">-10</text><text x="31.11111111111111" y="0" dx="0em" dy="0.95em" style="text-anchor: middle; visibility: inherit; font-family: Roboto, sans-serif; font-size: 12px; font-weight: 200;" fill="rgb(33, 33, 33)" stroke="none" stroke-width="1px">0</text><text x="62.22222222222222" y="0" dx="0em" dy="0.95em" style="text-anchor: middle; visibility: inherit; font-family: Roboto, sans-serif; font-size: 12px; font-weight: 200;" fill="rgb(33, 33, 33)" stroke="none" stroke-width="1px">10</text><text x="93.33333333333333" y="0" dx="0em" dy="0.95em" style="text-anchor: middle; visibility: inherit; font-family: Roboto, sans-serif; font-size: 12px; font-weight: 200;" fill="rgb(33, 33, 33)" stroke="none" stroke-width="1px">20</text><text x="124.44444444444444" y="0" dx="0em" dy="0.95em" style="text-anchor: middle; visibility: inherit; font-family: Roboto, sans-serif; font-size: 12px; font-weight: 200;" fill="rgb(33, 33, 33)" stroke="none" stroke-width="1px">30</text><text x="155.55555555555557" y="0" dx="0em" dy="0.95em" style="text-anchor: middle; visibility: inherit; font-family: Roboto, sans-serif; font-size: 12px; font-weight: 200;" fill="rgb(33, 33, 33)" stroke="none" stroke-width="1px">40</text><text x="186.66666666666666" y="0" dx="0em" dy="0.95em" style="text-anchor: middle; visibility: inherit; font-family: Roboto, sans-serif; font-size: 12px; font-weight: 200;" fill="rgb(33, 33, 33)" stroke="none" stroke-width="1px">50</text><text x="217.77777777777777" y="0" dx="0em" dy="0.95em" style="text-anchor: middle; visibility: inherit; font-family: Roboto, sans-serif; font-size: 12px; font-weight: 200;" fill="rgb(33, 33, 33)" stroke="none" stroke-width="1px">60</text><text x="248.88888888888889" y="0" dx="0em" dy="0.95em" style="text-anchor: middle; visibility: inherit; font-family: Roboto, sans-serif; font-size: 12px; font-weight: 200;" fill="rgb(33, 33, 33)" stroke="none" stroke-width="1px">70</text><text x="280" y="0" dx="0em" dy="0.95em" style="text-anchor: middle; visibility: hidden; font-family: Roboto, sans-serif; font-size: 12px; font-weight: 200;" fill="rgb(33, 33, 33)" stroke="none" stroke-width="1px">80</text></g><line x1="0" y1="0" x2="280" y2="0" fill="rgb(0, 0, 0)" stroke="rgb(204, 204, 204)" stroke-width="1px"></line></g></g></g></g></svg>