<svg viewBox="0 0 330 200" xmlns="http://www.w3.org/2000/svg"><g><g><g><g><g><line x1="50" y1="177" x2="45" y2="177" style="visibility: inherit;" fill="rgb(0, 0, 0)" stroke="rgb(204, 204, 204)" stroke-width="1px"></line><line x1="50" y1="154.875" x2="45" y2="154.875" style="visibility: inherit;" fill="rgb(0, 0, 0)" stroke="rgb(204, 204, 204)" stroke-width="1px"></line><line x1="50" y1="132.75" x2="45" y2="132.75" style="visibility: inherit;" fill="rgb(0, 0, 0)" stroke="rgb(204, 204, 204)" stroke-width="1px"></line><line x1="50" y1="110.625" x2="45" y2="110.625" style="visibility: inherit;" fill="rgb(0, 0, 0)" stroke="rgb(204, 204, 204)" stroke-width="1px"></line><line x1="50" y1="88.5" x2="45" y2="88.5" style="visibility: inherit;" fill="rgb(0, 0, 0)" stroke="rgb(204, 204, 204)" stroke-width="1px"></line><line x1="50" y1="66.375" x2="45" y2="66.375" style="visibility: inherit;" fill="rgb(0, 0, 0)" stroke="rgb(204, 204, 204)" stroke-width="1px"></line><line x1="50" y1="44.25000000000002" x2="45" y2="44.25000000000002" style="visibility: inherit;" fill="rgb(0, 0, 0)" stroke="rgb(204, 204, 204)" stroke-width="1px"></line><line x1="50" y1="22.125" x2="45" y2="22.125" style="visibility: inherit;" fill="rgb(0, 0, 0)" stroke="rgb(204, 204, 204)" stroke-width="1px"></line><line x1="50" y1="0" x2="45" y2="0" style="visibility: inherit;" fill="rgb(0, 0, 0)" stroke="rgb(204, 204, 204)" stroke-width="1px"></line></g><g transform="translate(40, 0)"><text x="0" y="177" dx="0em" dy="0.3em" style="text-anchor: end; visibility: hidden; font-family: Roboto, sans-serif; font-size: 12px; font-weight: 200;" fill="rgb(33, 33, 33)" stroke="none" stroke-width="1px">0.05</text><text x="0" y="154.875" dx="0em" dy="0.3em" style="text-anchor: end; visibility: inherit; font-family: Roboto, sans-serif; font-size: 12px; font-weight: 200;" fill="rgb(33, 33, 33)" stroke="none" stroke-width="1px">0.1</text><text x="0" y="132.75" dx="0em" dy="0.3em" style="text-anchor: end; visibility: hidden; font-family: Roboto, sans-serif; font-size: 12px; font-weight: 200;" fill="rgb(33, 33, 33)" stroke="none" stroke-width="1px">0.15</text><text x="0" y="110.625" dx="0em" dy="0.3em" style="text-anchor: end; visibility: inherit; font-family: Roboto, sans-serif; font-size: 12px; font-weight: 200;" fill="rgb(33, 33, 33)" stroke="none" stroke-width="1px">0.2</text><text x="0" y="88.5" dx="0em" dy="0.3em" style="text-anchor: end; visibility: hidden; font-family: Roboto, sans-serif; font-size: 12px; font-weight: 200;" fill="rgb(33, 33, 33)" stroke="none" stroke-width="1px">0.25</text><text x="0" y="66.375" dx="0em" dy="0.3em" style="text-anchor: end; visibility: inherit; font-family: Roboto, sans-serif; font-size: 12px; font-weight: 200;" fill="rgb(33, 33, 33)" stroke="none" stroke-width="1px">0.3</text><text x="0" y="44.25000000000002" dx="0em" dy="0.3em" style="text-anchor: end; visibility: hidden; font-family: Roboto, sans-serif; font-size: 12px; font-weight: 200;" fill="rgb(33, 33, 33)" stroke="none" stroke-width="1px">0.35</text><text x="0" y="22.125" dx="0em" dy="0.3em" style="text-anchor: end; visibility: inherit; font-family: Roboto, sans-serif; font-size: 12px; font-weight: 200;" fill="rgb(33, 33, 33)" stroke="none" stroke-width="1px">0.4</text><text x="0" y="0" dx="0em" dy="0.3em" style="text-anchor: end; visibility: hidden; font-family: Roboto, sans-serif; font-size: 12px; font-weight: 200;" fill="rgb(33, 33, 33)" stroke="none" stroke-width="1px">0.45</text></g><line x1="50" y1="0" x2="50" y2="177" fill="rgb(0, 0, 0)" stroke="rgb(204, 204, 204)" stroke-width="1px"></line></g></g><g transform="translate(50, 0)" clip-path="url(#clip_0)"><clipPath id="clip_0"><rect width="280" height="177"></rect></clipPath><g><g><g><line x1="0" y1="0" x2="0" y2="177" fill="rgb(0, 0, 0)" stroke="rgb(66, 66, 66)" stroke-width="1px" opacity="0.25"></line><line x1="25.454545454545457" y1="0" x2="25.454545454545457" y2="177" fill="rgb(0, 0, 0)" stroke="rgb(66, 66, 66)" stroke-width="1px" opacity="0.25"></line><line x1="50.909090909090914" y1="0" x2="50.909090909090914" y2="177" fill="rgb(0, 0, 0)" stroke="rgb(66, 66, 66)" stroke-width="1px" opacity="0.25"></line><line x1="76.36363636363636" y1="0" x2="76.36363636363636" y2="177" fill="rgb(0, 0, 0)" stroke="rgb(66, 66, 66)" stroke-width="1px" opacity="0.25"></line><line x1="101.81818181818183" y1="0" x2="101.81818181818183" y2="177" fill="rgb(0, 0, 0)" stroke="rgb(66, 66, 66)" stroke-width="1px" opacity="0.25"></line><line x1="127.27272727272727" y1="0" x2="127.27272727272727" y2="177" fill="rgb(0, 0, 0)" stroke="rgb(66, 66, 66)" stroke-width="1px" opacity="0.25"></line><line x1="152.72727272727272" y1="0" x2="152.72727272727272" y2="177" fill="rgb(0, 0, 0)" stroke="rgb(66, 66, 66)" stroke-width="1px" opacity="0.25"></line><line x1="178.1818181818182" y1="0" x2="178.1818181818182" y2="177" fill="rgb(0, 0, 0)" stroke="rgb(66, 66, 66)" stroke-width="1px" opacity="0.25"></line><line x1="203.63636363636365" y1="0" x2="203.63636363636365" y2="177" fill="rgb(0, 0, 0)" stroke="rgb(66, 66, 66)" stroke-width="1px" opacity="0.25"></line><line x1="229.0909090909091" y1="0" x2="229.0909090909091" y2="177" fill="rgb(0, 0, 0)" stroke="rgb(66, 66, 66)" stroke-width="1px" opacity="0.25"></line><line x1="254.54545454545453" y1="0" x2="254.54545454545453" y2="177" fill="rgb(0, 0, 0)" stroke="rgb(66, 66, 66)" stroke-width="1px" opacity="0.25"></line><line x1="280" y1="0" x2="280" y2="177" fill="rgb(0, 0, 0)" stroke="rgb(66, 66, 66)" stroke-width="1px" opacity="0.25"></line></g><g><line x1="0" y1="177" x2="280" y2="177" fill="rgb(0, 0, 0)" stroke="rgb(66, 66, 66)" stroke-width="1px" opacity="0.25"></line><line x1="0" y1="154.875" x2="280" y2="154.875" fill="rgb(0, 0, 0)" stroke="rgb(66, 66, 66)" stroke-width="1px" opacity="0.25"></line><line x1="0" y1="132.75" x2="280" y2="132.75" fill="rgb(0, 0, 0)" stroke="rgb(66, 66, 66)" stroke-width="1px" opacity="0.25"></line><line x1="0" y1="110.625" x2="280" y2="110.625" fill="rgb(0, 0, 0)" stroke="rgb(66, 66, 66)" stroke-width="1px" opacity="0.25"></line><line x1="0" y1="88.5" x2="280" y2="88.5" fill="rgb(0, 0, 0)" stroke="rgb(66, 66, 66)" stroke-width="1px" opacity="0.25"></line><line x1="0" y1="66.375" x2="280" y2="66.375" fill="rgb(0, 0, 0)" stroke="rgb(66, 66, 66)" stroke-width="1px" opacity="0.25"></line><line x1="0" y1="44.25000000000002" x2="280" y2="44.25000000000002" fill="rgb(0, 0, 0)" stroke="rgb(66, 66, 66)" stroke-width="1px" opacity="0.25"></line><line x1="0" y1="22.125" x2="280" y2="22.125" fill="rgb(0, 0, 0)" stroke="rgb(66, 66, 66)" stroke-width="1px" opacity="0.25"></line><line x1="0" y1="0" x2="280" y2="0" fill="rgb(0, 0, 0)" stroke="rgb(66, 66, 66)" stroke-width="1px" opacity="0.25"></line></g></g></g><g><g><line x1="0" y1="199.125" x2="280" y2="199.125" fill="rgb(0, 0, 0)" stroke="rgb(153, 153, 153)" stroke-width="1.5px"></line></g></g><g><g><line x1="25.454545454545457" y1="0" x2="25.454545454545457" y2="177" fill="rgb(0, 0, 0)" stroke="rgb(153, 153, 153)" stroke-width="1.5px"></line></g></g><g><g><g><g><g><path stroke="rgb(0, 153, 136)" stroke-width="2px" d="M25.454545454545457,-10.067722588777542L30.545454545454543,29.351215235888958L35.63636363636363,53.39368958892873L40.72727272727273,64.65949451101618L45.81818181818182,78.71805935006107L50.909090909090914,89.32525279122346L56,95.09187764921693L61.090909090909086,103.458792219757L66.18181818181819,109.1602845104173L71.27272727272727,114.76674397816876L76.36363636363636,119.94481332435289L81.45454545454545,123.36509669246323L86.54545454545455,124.74589742635067L91.63636363636364,128.4519791425778L96.72727272727273,133.52939072846863L101.81818181818183,134.78600338722424L106.9090909090909,138.07111229525665L112,140.11664480697326L117.09090909090908,141.9467979001707L122.18181818181817,144.3449385464795L127.27272727272727,145.55614377848764L132.36363636363637,146.3402876265334L137.45454545454547,147.78532936381842L142.54545454545453,148.57904124518316L147.63636363636363,148.9394356260382L152.72727272727272,150.03987969268223L157.8181818181818,151.80387882566916L162.9090909090909,152.03100478992928L168,152.00033271133913L173.0909090909091,153.47386909260482L178.1818181818182,154.67750740659196L183.27272727272728,155.8817261170816L188.36363636363637,156.55114583061777L193.45454545454547,156.52519731677717L198.54545454545456,156.47083182066888L203.63636363636365,157.32684749014095L208.72727272727275,157.40771739471484L213.8181818181818,157.2104554707744L218.9090909090909,153.57767098242948L224,156.40385524319848L229.0909090909091,156.26842219304453L234.18181818181816,157.6475913764999L239.27272727272725,157.26390287072104L244.36363636363635,159.379876219345L249.45454545454544,159.72159765104797L254.54545454545453,160.3443335798196L259.6363636363636,160.55493905138636L264.72727272727275,158.97181894919694L269.8181818181818,159.58225691642048" style="fill: none;" fill="none"></path></g><g><path stroke="rgb(238, 51, 119)" stroke-width="2px" d="M30.545454545454543,-30.24718839302659L35.63636363636363,12.997872061875416L40.72727272727273,40.510417310794956L45.81818181818182,58.12648478224824L50.909090909090914,72.90272073457005L56,84.30174431211272L61.090909090909086,92.73559925775311L66.18181818181819,100.21833568519666L71.27272727272727,107.07983193803364L76.36363636363636,112.89417146345892L81.45454545454545,117.75547632949302L86.54545454545455,122.43557786632608L91.63636363636364,126.24900969247703L96.72727272727273,129.89475613690976L101.81818181818183,132.806364133013L106.9090909090909,135.68026121540726L112,138.36350385651735L117.09090909090908,141.12934568227757L122.18181818181817,143.71109780943544L127.27272727272727,145.86960319703869L132.36363636363637,148.33921367843698L137.45454545454547,150.21170605643843L142.54545454545453,151.85083338754657L147.63636363636363,153.0141528726737L152.72727272727272,154.26933754104857L157.8181818181818,156.35512844935832L162.9090909090909,157.79691755032718L168,159.3220396341936L173.0909090909091,160.4104652517457L178.1818181818182,161.91700945890472L183.27272727272728,163.14114751483038L188.36363636363637,164.48514069963915L193.45454545454547,165.43120831636813L198.54545454545456,166.66283298546304L203.63636363636365,167.94257685678477L208.72727272727275,168.83075672423516L213.8181818181818,169.2434392261074L218.9090909090909,170.31402364463105L224,171.19748450019136L229.0909090909091,172.2354766627422L234.18181818181816,173.43671252935943L239.27272727272725,174.3373998420146L244.36363636363635,175.50689818010366L249.45454545454544,176.40285474023975L254.54545454545453,177.32745228169222" style="fill: none;" fill="none"></path></g><g><path stroke="rgb(51, 187, 238)" stroke-width="2px" d="M25.454545454545457,8.96140506863594L30.545454545454543,36.752842063084245L35.63636363636363,57.03416876829401L40.72727272727273,71.34331257181134L45.81818181818182,84.45371646435622L50.909090909090914,93.58475275702722L56,101.19243074725598L61.090909090909086,108.38580902300471L66.18181818181819,113.84055068540913L71.27272727272727,118.40344325904097L76.36363636363636,120.73419946318936L81.45454545454545,123.42821276129789L86.54545454545455,127.29075018879492L91.63636363636364,130.78835722854225L96.72727272727273,132.89167625704133L101.81818181818183,135.73459409685583L106.9090909090909,137.65072249860586L112,138.4720344649007L117.09090909090908,139.2443978083789L122.18181818181817,140.09699815088945L127.27272727272727,140.8963730609508L132.36363636363637,142.20966182395966L137.45454545454547,143.80355184862424L142.54545454545453,144.39261397197976L147.63636363636363,145.59975835836036L152.72727272727272,146.70782951577598L157.8181818181818,147.5374321834315L162.9090909090909,147.74250511580067L168,148.26636670164334L173.0909090909091,146.42328397197747L178.1818181818182,145.75201643898973L183.27272727272728,148.09830447270576L188.36363636363637,149.0945709032753L193.45454545454547,151.0960982528357L198.54545454545456,151.12788752890805L203.63636363636365,152.74683504091934L208.72727272727275,153.26964428770577L213.8181818181818,154.18584687452795L218.9090909090909,153.02772952025174L224,153.37059357453546L229.0909090909091,151.46342346777038L234.18181818181816,152.04473709318907L239.27272727272725,153.3156631399121" style="fill: none;" fill="none"></path></g><g><path stroke="rgb(204, 51, 17)" stroke-width="2px" d="M35.63636363636363,-0.42346992176404874L40.72727272727273,27.286294071058606L45.81818181818182,45.46010893615356L50.909090909090914,59.55729788954939L56,71.5118929895092L61.090909090909086,81.26064881956728L66.18181818181819,88.44251335116935L71.27272727272727,94.00931830727447L76.36363636363636,99.95075569341726L81.45454545454545,103.910226388243L86.54545454545455,107.93550619810712L91.63636363636364,111.86837713812135L96.72727272727273,114.6865242062095L101.81818181818183,117.77953002149665L106.9090909090909,120.76573360066102L112,123.13257040366474L117.09090909090908,125.36630461844157L122.18181818181817,126.93626701478237L127.27272727272727,129.33328022440963L132.36363636363637,130.6406404128866L137.45454545454547,132.50620713108682L142.54545454545453,134.29580227700248L147.63636363636363,136.84724698757074L152.72727272727272,137.17012166498907L157.8181818181818,139.44890715072353L162.9090909090909,140.34749720376524L168,142.25648604118393L173.0909090909091,142.98347942976827L178.1818181818182,144.1685160298378L183.27272727272728,144.98286613294988L188.36363636363637,145.88350860586738L193.45454545454547,147.05741104009016L198.54545454545456,149.70309373380383L203.63636363636365,150.89196963726855L208.72727272727275,151.0531201975745L213.8181818181818,151.55008364904887L218.9090909090909,152.45445544139747L224,153.2284958886492L229.0909090909091,153.78921812086898L234.18181818181816,154.92797273040733L239.27272727272725,156.64508678301635" style="fill: none;" fill="none"></path></g></g></g></g><g opacity="0.2"><g><g><g><path stroke="rgb(0, 153, 136)" stroke-width="2px" d="M25.454545454545457,-10.067722588777542L30.545454545454543,53.00257793068886L35.63636363636363,76.47446496784687L40.72727272727273,77.90808109939098L45.81818181818182,97.07292160391808L50.909090909090914,103.99881990998983L56,103.33824346214533L61.090909090909086,115.65783398598433L66.18181818181819,117.5688781812787L71.27272727272727,123.09168288856745L76.36363636363636,127.66495263576508L81.45454545454545,128.47690871357918L86.54545454545455,126.81258997321129L91.63636363636364,134.00384111702442L96.72727272727273,141.13953980058432L101.81818181818183,136.6700361147523L106.9090909090909,142.99738550931215L112,143.18442421406507L117.09090909090908,144.6917487345636L122.18181818181817,147.9419303163886L127.27272727272727,147.37288520112634L132.36363636363637,147.51647759601474L137.45454545454547,149.95286343991756L142.54545454545453,149.76959966495633L147.63636363636363,149.48002463579178L152.72727272727272,151.69054109975696L157.8181818181818,154.44987301155925L162.9090909090909,152.3716933876276L168,151.9543246217072L173.0909090909091,155.6841728501022L178.1818181818182,156.48296447843313L183.27272727272728,157.6880539432168L188.36363636363637,157.55527532100677L193.45454545454547,156.48627454787493L198.54545454545456,156.38928357884288L203.63636363636365,158.61087097227573L208.72727272727275,157.5290222503245L213.8181818181818,156.91456258669496L218.9090909090909,148.1284942701459L224,160.64313162490726L229.0909090909091,156.06527261808515L234.18181818181816,159.7163451500237L239.27272727272725,156.68837011232972L244.36363636363635,162.55383624136448L249.45454545454544,160.23417979851365L254.54545454545453,161.2784374728799L259.6363636363636,160.87084725871682L264.72727272727275,156.59713879600167L269.8181818181818,160.49791386723518" style="fill: none;" fill="none"></path></g><g><path stroke="rgb(238, 51, 119)" stroke-width="2px" d="M25.454545454545457,-113.0552186965942L30.545454545454543,19.437629789114L35.63636363636363,54.513130098581314L40.72727272727273,72.86517052352428L45.81818181818182,81.12602247297764L50.909090909090914,93.34357450157404L56,100.60253041237593L61.090909090909086,105.0322407335043L66.18181818181819,111.25391846895218L71.27272727272727,117.2683542072773L76.36363636363636,121.5629451200366L81.45454545454545,125.0209786221385L86.54545454545455,129.44044882804155L91.63636363636364,131.96168652176857L96.72727272727273,135.35909036546946L101.81818181818183,137.1717226356268L106.9090909090909,139.9898907020688L112,142.38768654316664L117.09090909090908,145.2776870727539L122.18181818181817,147.58349001780152L127.27272727272727,149.1072429008782L132.36363636363637,152.04354813694954L137.45454545454547,153.02040765434504L142.54545454545453,154.30950496718287L147.63636363636363,154.75912383198738L152.72727272727272,156.15210919082165L157.8181818181818,159.48380947485566L162.9090909090909,159.9595989882946L168,161.6097213551402L173.0909090909091,162.04310307651758L178.1818181818182,164.17682527005672L183.27272727272728,164.97735435515642L188.36363636363637,166.5011303164065L193.45454545454547,166.85030967369676L198.54545454545456,168.51026993617415L203.63636363636365,169.86219263076782L208.72727272727275,170.16302651166916L213.8181818181818,169.86246297508478L218.9090909090909,171.91990026645362L224,172.52267578057945L229.0909090909091,173.79246490448713L234.18181818181816,175.2385663278401L239.27272727272725,175.6884308103472L244.36363636363635,177.26114568673074" style="fill: none;" fill="none"></path></g><g><path stroke="rgb(51, 187, 238)" stroke-width="2px" d="M25.454545454545457,8.96140506863594L30.545454545454543,53.42770425975323L35.63636363636363,76.50424240529537L40.72727272727273,88.1708656847477L45.81818181818182,101.57065978646278L50.909090909090914,106.21626312285662L56,112.07153199613094L61.090909090909086,118.87382360547781L66.18181818181819,121.88523510843515L71.27272727272727,125.17880695313215L76.36363636363636,124.20919398218393L81.45454545454545,127.45457200706005L86.54545454545455,133.07194447517395L91.63636363636364,136.02791561186314L96.72727272727273,136.0441824272275L101.81818181818183,139.99696581065655L106.9090909090909,140.5241042599082L112,139.70379388332367L117.09090909090908,140.4028251618147L122.18181818181817,141.37582073360682L127.27272727272727,142.09539158642292L132.36363636363637,144.17955175414681L137.45454545454547,146.19435541704297L142.54545454545453,145.27620017901063L147.63636363636363,147.4104663580656L152.72727272727272,148.3699315264821L157.8181818181818,148.78183406218886L162.9090909090909,148.05011419951916L168,149.05215859785676L173.0909090909091,143.65866089612246L178.1818181818182,144.74511536210775L183.27272727272728,151.61773605644703L188.36363636363637,150.58897043019533L193.45454545454547,154.098389133811L198.54545454545456,151.1755714416504L203.63636363636365,155.17525626718998L208.72727272727275,154.05385814979672L213.8181818181818,155.5601507462561L218.9090909090909,151.2905534952879L224,153.8848896548152L229.0909090909091,148.6026683114469L234.18181818181816,152.9167075306177L239.27272727272725,155.22205220907927" style="fill: none;" fill="none"></path></g><g><path stroke="rgb(204, 51, 17)" stroke-width="2px" d="M25.454545454545457,-131.36665472388265L30.545454545454543,6.807987302541733L35.63636363636363,42.37720227241516L40.72727272727273,59.872976526618004L45.81818181818182,69.18784162402153L50.909090909090914,79.05878520011902L56,88.60715525597334L61.090909090909086,95.47442840784788L66.18181818181819,99.03436852991581L71.27272727272727,102.27537488937378L76.36363636363636,108.80902337282896L81.45454545454545,109.82788516581059L86.54545454545455,113.96028267592192L91.63636363636364,117.75997864454985L96.72727272727273,118.9104321822524L101.81818181818183,122.41685731709003L106.9090909090909,125.24377530813217L112,126.68222466856241L117.09090909090908,128.71656565368176L122.18181818181817,129.29106710851192L127.27272727272727,132.9286685809493L132.36363636363637,132.60163767635822L137.45454545454547,135.30452037602663L142.54545454545453,136.98017379641533L147.63636363636363,140.67439591884613L152.72727272727272,137.6544323042035L157.8181818181818,142.86707954853773L162.9090909090909,141.69538090378046L168,145.11996753886342L173.0909090909091,144.07396911084652L178.1818181818182,145.9460705369711L183.27272727272728,146.2043911255896L188.36363636363637,147.23447220772505L193.45454545454547,148.8182646073401L198.54545454545456,153.67161766067147L203.63636363636365,152.67528346180916L208.72727272727275,151.2948460355401L213.8181818181818,152.29552882164717L218.9090909090909,153.81101312488317L224,154.38955655694008L229.0909090909091,154.63030146807432L234.18181818181816,156.63610464334488L239.27272727272725,159.22075786069036" style="fill: none;" fill="none"></path></g></g></g></g></g></g><g transform="translate(50, 177)" clip-path="url(#clip_1)"><clipPath id="clip_1"><rect width="280" height="23"></rect></clipPath><g><g><line x1="0" y1="0" x2="0" y2="5" style="visibility: inherit;" fill="rgb(0, 0, 0)" stroke="rgb(204, 204, 204)" stroke-width="1px"></line><line x1="25.454545454545457" y1="0" x2="25.454545454545457" y2="5" style="visibility: inherit;" fill="rgb(0, 0, 0)" stroke="rgb(204, 204, 204)" stroke-width="1px"></line><line x1="50.909090909090914" y1="0" x2="50.909090909090914" y2="5" style="visibility: inherit;" fill="rgb(0, 0, 0)" stroke="rgb(204, 204, 204)" stroke-width="1px"></line><line x1="76.36363636363636" y1="0" x2="76.36363636363636" y2="5" style="visibility: inherit;" fill="rgb(0, 0, 0)" stroke="rgb(204, 204, 204)" stroke-width="1px"></line><line x1="101.81818181818183" y1="0" x2="101.81818181818183" y2="5" style="visibility: inherit;" fill="rgb(0, 0, 0)" stroke="rgb(204, 204, 204)" stroke-width="1px"></line><line x1="127.27272727272727" y1="0" x2="127.27272727272727" y2="5" style="visibility: inherit;" fill="rgb(0, 0, 0)" stroke="rgb(204, 204, 204)" stroke-width="1px"></line><line x1="152.72727272727272" y1="0" x2="152.72727272727272" y2="5" style="visibility: inherit;" fill="rgb(0, 0, 0)" stroke="rgb(204, 204, 204)" stroke-width="1px"></line><line x1="178.1818181818182" y1="0" x2="178.1818181818182" y2="5" style="visibility: inherit;" fill="rgb(0, 0, 0)" stroke="rgb(204, 204, 204)" stroke-width="1px"></line><line x1="203.63636363636365" y1="0" x2="203.63636363636365" y2="5" style="visibility: inherit;" fill="rgb(0, 0, 0)" stroke="rgb(204, 204, 204)" stroke-width="1px"></line><line x1="229.0909090909091" y1="0" x2="229.0909090909091" y2="5" style="visibility: inherit;" fill="rgb(0, 0, 0)" stroke="rgb(204, 204, 204)" stroke-width="1px"></line><line x1="254.54545454545453" y1="0" x2="254.54545454545453" y2="5" style="visibility: inherit;" fill="rgb(0, 0, 0)" stroke="rgb(204, 204, 204)" stroke-width="1px"></line><line x1="280" y1="0" x2="280" y2="5" style="visibility: inherit;" fill="rgb(0, 0, 0)" stroke="rgb(204, 204, 204)" stroke-width="1px"></line></g><g transform="translate(0, 8)"><text x="0" y="0" dx="0em" dy="0.95em" style="text-anchor: middle; visibility: hidden; font-family: Roboto, sans-serif; font-size: 12px; font-weight: 200;" fill="rgb(33, 33, 33)" stroke="none" stroke-width="1px">-5</text><text x="25.454545454545457" y="0" dx="0em" dy="0.95em" style="text-anchor: middle; visibility: inherit; font-family: Roboto, sans-serif; font-size: 12px; font-weight: 200;" fill="rgb(33, 33, 33)" stroke="none" stroke-width="1px">0</text><text x="50.909090909090914" y="0" dx="0em" dy="0.95em" style="text-anchor: middle; visibility: inherit; font-family: Roboto, sans-serif; font-size: 12px; font-weight: 200;" fill="rgb(33, 33, 33)" stroke="none" stroke-width="1px">5</text><text x="76.36363636363636" y="0" dx="0em" dy="0.95em" style="text-anchor: middle; visibility: inherit; font-family: Roboto, sans-serif; font-size: 12px; font-weight: 200;" fill="rgb(33, 33, 33)" stroke="none" stroke-width="1px">10</text><text x="101.81818181818183" y="0" dx="0em" dy="0.95em" style="text-anchor: middle; visibility: inherit; font-family: Roboto, sans-serif; font-size: 12px; font-weight: 200;" fill="rgb(33, 33, 33)" stroke="none" stroke-width="1px">15</text><text x="127.27272727272727" y="0" dx="0em" dy="0.95em" style="text-anchor: middle; visibility: inherit; font-family: Roboto, sans-serif; font-size: 12px; font-weight: 200;" fill="rgb(33, 33, 33)" stroke="none" stroke-width="1px">20</text><text x="152.72727272727272" y="0" dx="0em" dy="0.95em" style="text-anchor: middle; visibility: inherit; font-family: Roboto, sans-serif; font-size: 12px; font-weight: 200;" fill="rgb(33, 33, 33)" stroke="none" stroke-width="1px">25</text><text x="178.1818181818182" y="0" dx="0em" dy="0.95em" style="text-anchor: middle; visibility: inherit; font-family: Roboto, sans-serif; font-size: 12px; font-weight: 200;" fill="rgb(33, 33, 33)" stroke="none" stroke-width="1px">30</text><text x="203.63636363636365" y="0" dx="0em" dy="0.95em" style="text-anchor: middle; visibility: inherit; font-family: Roboto, sans-serif; font-size: 12px; font-weight: 200;" fill="rgb(33, 33, 33)" stroke="none" stroke-width="1px">35</text><text x="229.0909090909091" y="0" dx="0em" dy="0.95em" style="text-anchor: middle; visibility: inherit; font-family: Roboto, sans-serif; font-size: 12px; font-weight: 200;" fill="rgb(33, 33, 33)" stroke="none" stroke-width="1px">40</text><text x="254.54545454545453" y="0" dx="0em" dy="0.95em" style="text-anchor: middle; visibility: inherit; font-family: Roboto, sans-serif; font-size: 12px; font-weight: 200;" fill="rgb(33, 33, 33)" stroke="none" stroke-width="1px">45</text><text x="280" y="0" dx="0em" dy="0.95em" style="text-anchor: middle; visibility: hidden; font-family: Roboto, sans-serif; font-size: 12px; font-weight: 200;" fill="rgb(33, 33, 33)" stroke="none" stroke-width="1px">50</text></g><line x1="0" y1="0" x2="280" y2="0" fill="rgb(0, 0, 0)" stroke="rgb(204, 204, 204)" stroke-width="1px"></line></g></g></g></g></svg>