<svg viewBox="0 0 330 200" xmlns="http://www.w3.org/2000/svg"><g><g><g><g><g><line x1="50" y1="177" x2="45" y2="177" style="visibility: inherit;" fill="rgb(0, 0, 0)" stroke="rgb(204, 204, 204)" stroke-width="1px"></line><line x1="50" y1="154.87499999999997" x2="45" y2="154.87499999999997" style="visibility: inherit;" fill="rgb(0, 0, 0)" stroke="rgb(204, 204, 204)" stroke-width="1px"></line><line x1="50" y1="132.74999999999997" x2="45" y2="132.74999999999997" style="visibility: inherit;" fill="rgb(0, 0, 0)" stroke="rgb(204, 204, 204)" stroke-width="1px"></line><line x1="50" y1="110.62499999999996" x2="45" y2="110.62499999999996" style="visibility: inherit;" fill="rgb(0, 0, 0)" stroke="rgb(204, 204, 204)" stroke-width="1px"></line><line x1="50" y1="88.49999999999994" x2="45" y2="88.49999999999994" style="visibility: inherit;" fill="rgb(0, 0, 0)" stroke="rgb(204, 204, 204)" stroke-width="1px"></line><line x1="50" y1="66.37499999999991" x2="45" y2="66.37499999999991" style="visibility: inherit;" fill="rgb(0, 0, 0)" stroke="rgb(204, 204, 204)" stroke-width="1px"></line><line x1="50" y1="44.25000000000004" x2="45" y2="44.25000000000004" style="visibility: inherit;" fill="rgb(0, 0, 0)" stroke="rgb(204, 204, 204)" stroke-width="1px"></line><line x1="50" y1="22.12500000000002" x2="45" y2="22.12500000000002" style="visibility: inherit;" fill="rgb(0, 0, 0)" stroke="rgb(204, 204, 204)" stroke-width="1px"></line><line x1="50" y1="0" x2="45" y2="0" style="visibility: inherit;" fill="rgb(0, 0, 0)" stroke="rgb(204, 204, 204)" stroke-width="1px"></line></g><g transform="translate(40, 0)"><text x="0" y="177" dx="0em" dy="0.3em" style="text-anchor: end; visibility: hidden; font-family: Roboto, sans-serif; font-size: 12px; font-weight: 200;" fill="rgb(33, 33, 33)" stroke="none" stroke-width="1px">0.82</text><text x="0" y="154.87499999999997" dx="0em" dy="0.3em" style="text-anchor: end; visibility: inherit; font-family: Roboto, sans-serif; font-size: 12px; font-weight: 200;" fill="rgb(33, 33, 33)" stroke="none" stroke-width="1px">0.84</text><text x="0" y="132.74999999999997" dx="0em" dy="0.3em" style="text-anchor: end; visibility: hidden; font-family: Roboto, sans-serif; font-size: 12px; font-weight: 200;" fill="rgb(33, 33, 33)" stroke="none" stroke-width="1px">0.86</text><text x="0" y="110.62499999999996" dx="0em" dy="0.3em" style="text-anchor: end; visibility: inherit; font-family: Roboto, sans-serif; font-size: 12px; font-weight: 200;" fill="rgb(33, 33, 33)" stroke="none" stroke-width="1px">0.88</text><text x="0" y="88.49999999999994" dx="0em" dy="0.3em" style="text-anchor: end; visibility: hidden; font-family: Roboto, sans-serif; font-size: 12px; font-weight: 200;" fill="rgb(33, 33, 33)" stroke="none" stroke-width="1px">0.9</text><text x="0" y="66.37499999999991" dx="0em" dy="0.3em" style="text-anchor: end; visibility: inherit; font-family: Roboto, sans-serif; font-size: 12px; font-weight: 200;" fill="rgb(33, 33, 33)" stroke="none" stroke-width="1px">0.92</text><text x="0" y="44.25000000000004" dx="0em" dy="0.3em" style="text-anchor: end; visibility: hidden; font-family: Roboto, sans-serif; font-size: 12px; font-weight: 200;" fill="rgb(33, 33, 33)" stroke="none" stroke-width="1px">0.94</text><text x="0" y="22.12500000000002" dx="0em" dy="0.3em" style="text-anchor: end; visibility: inherit; font-family: Roboto, sans-serif; font-size: 12px; font-weight: 200;" fill="rgb(33, 33, 33)" stroke="none" stroke-width="1px">0.96</text><text x="0" y="0" dx="0em" dy="0.3em" style="text-anchor: end; visibility: hidden; font-family: Roboto, sans-serif; font-size: 12px; font-weight: 200;" fill="rgb(33, 33, 33)" stroke="none" stroke-width="1px">0.98</text></g><line x1="50" y1="0" x2="50" y2="177" fill="rgb(0, 0, 0)" stroke="rgb(204, 204, 204)" stroke-width="1px"></line></g></g><g transform="translate(50, 0)" clip-path="url(#clip_0)"><clipPath id="clip_0"><rect width="280" height="177"></rect></clipPath><g><g><g><line x1="0" y1="0" x2="0" y2="177" fill="rgb(0, 0, 0)" stroke="rgb(66, 66, 66)" stroke-width="1px" opacity="0.25"></line><line x1="31.11111111111111" y1="0" x2="31.11111111111111" y2="177" fill="rgb(0, 0, 0)" stroke="rgb(66, 66, 66)" stroke-width="1px" opacity="0.25"></line><line x1="62.22222222222222" y1="0" x2="62.22222222222222" y2="177" fill="rgb(0, 0, 0)" stroke="rgb(66, 66, 66)" stroke-width="1px" opacity="0.25"></line><line x1="93.33333333333333" y1="0" x2="93.33333333333333" y2="177" fill="rgb(0, 0, 0)" stroke="rgb(66, 66, 66)" stroke-width="1px" opacity="0.25"></line><line x1="124.44444444444444" y1="0" x2="124.44444444444444" y2="177" fill="rgb(0, 0, 0)" stroke="rgb(66, 66, 66)" stroke-width="1px" opacity="0.25"></line><line x1="155.55555555555557" y1="0" x2="155.55555555555557" y2="177" fill="rgb(0, 0, 0)" stroke="rgb(66, 66, 66)" stroke-width="1px" opacity="0.25"></line><line x1="186.66666666666666" y1="0" x2="186.66666666666666" y2="177" fill="rgb(0, 0, 0)" stroke="rgb(66, 66, 66)" stroke-width="1px" opacity="0.25"></line><line x1="217.77777777777777" y1="0" x2="217.77777777777777" y2="177" fill="rgb(0, 0, 0)" stroke="rgb(66, 66, 66)" stroke-width="1px" opacity="0.25"></line><line x1="248.88888888888889" y1="0" x2="248.88888888888889" y2="177" fill="rgb(0, 0, 0)" stroke="rgb(66, 66, 66)" stroke-width="1px" opacity="0.25"></line><line x1="280" y1="0" x2="280" y2="177" fill="rgb(0, 0, 0)" stroke="rgb(66, 66, 66)" stroke-width="1px" opacity="0.25"></line></g><g><line x1="0" y1="177" x2="280" y2="177" fill="rgb(0, 0, 0)" stroke="rgb(66, 66, 66)" stroke-width="1px" opacity="0.25"></line><line x1="0" y1="154.87499999999997" x2="280" y2="154.87499999999997" fill="rgb(0, 0, 0)" stroke="rgb(66, 66, 66)" stroke-width="1px" opacity="0.25"></line><line x1="0" y1="132.74999999999997" x2="280" y2="132.74999999999997" fill="rgb(0, 0, 0)" stroke="rgb(66, 66, 66)" stroke-width="1px" opacity="0.25"></line><line x1="0" y1="110.62499999999996" x2="280" y2="110.62499999999996" fill="rgb(0, 0, 0)" stroke="rgb(66, 66, 66)" stroke-width="1px" opacity="0.25"></line><line x1="0" y1="88.49999999999994" x2="280" y2="88.49999999999994" fill="rgb(0, 0, 0)" stroke="rgb(66, 66, 66)" stroke-width="1px" opacity="0.25"></line><line x1="0" y1="66.37499999999991" x2="280" y2="66.37499999999991" fill="rgb(0, 0, 0)" stroke="rgb(66, 66, 66)" stroke-width="1px" opacity="0.25"></line><line x1="0" y1="44.25000000000004" x2="280" y2="44.25000000000004" fill="rgb(0, 0, 0)" stroke="rgb(66, 66, 66)" stroke-width="1px" opacity="0.25"></line><line x1="0" y1="22.12500000000002" x2="280" y2="22.12500000000002" fill="rgb(0, 0, 0)" stroke="rgb(66, 66, 66)" stroke-width="1px" opacity="0.25"></line><line x1="0" y1="0" x2="280" y2="0" fill="rgb(0, 0, 0)" stroke="rgb(66, 66, 66)" stroke-width="1px" opacity="0.25"></line></g></g></g><g><g><line x1="0" y1="1084.1249999999998" x2="280" y2="1084.1249999999998" fill="rgb(0, 0, 0)" stroke="rgb(153, 153, 153)" stroke-width="1.5px"></line></g></g><g><g><line x1="31.11111111111111" y1="0" x2="31.11111111111111" y2="177" fill="rgb(0, 0, 0)" stroke="rgb(153, 153, 153)" stroke-width="1.5px"></line></g></g><g><g><g><g><g><path stroke="rgb(255, 112, 67)" stroke-width="2px" d="M37.333333333333336,184.0202187065567L40.44444444444444,159.49019218975792L43.55555555555556,143.09415755028482L46.666666666666664,128.80779477267865L49.77777777777778,116.77277979843763L52.888888888888886,106.1277236300572L56,97.51484819439959L59.111111111111114,90.0710448047732L62.22222222222222,83.73034952064032L65.33333333333333,79.72949051481669L68.44444444444444,75.85762859682663L71.55555555555554,71.42896833980006L74.66666666666667,69.61723208457784L77.77777777777779,66.63378129124511L80.88888888888889,67.1625082112813L84,64.10790044615668L87.11111111111111,62.48605750123099L90.22222222222223,60.4594248814734L93.33333333333333,59.87563755069398L96.44444444444444,58.05035534073423L99.55555555555556,56.7444894097196L102.66666666666666,54.907393499530244L105.77777777777777,53.38371969263603L108.88888888888889,53.52309793763967L112,52.34243516205682L115.1111111111111,50.79117010984031L118.22222222222223,50.4925692468565L121.33333333333334,50.52411916295875L124.44444444444444,50.33233876331036L127.55555555555556,47.68869378569319L130.66666666666666,47.99892625145912L133.77777777777777,47.974355398504066L136.88888888888889,46.69532458901361L140,45.29577516018192L143.1111111111111,43.82388818246478L146.22222222222223,44.62646491815051L149.33333333333334,43.633012361038254L152.44444444444443,44.301229106311304L155.55555555555557,43.64860756757633L158.66666666666666,43.67845527866591L161.77777777777777,42.010654994596884L164.88888888888889,43.11710436884842L168,42.93813272560332L171.11111111111111,41.56646146315547L174.22222222222223,41.58629997335877L177.33333333333331,41.80891339638138L180.44444444444446,41.73177113329242L183.55555555555554,39.36764591450474L186.66666666666666,39.213432684629396L189.7777777777778,40.38519302314226L192.88888888888889,39.61325063291462L196,39.78224252452435L199.11111111111111,39.672927342593454L202.22222222222223,38.97518090769015L205.33333333333331,39.820821323182436L208.44444444444446,39.274627612940236L211.55555555555554,40.211199663228726L214.66666666666669,39.29814430007144L217.77777777777777,38.118180131487826L220.88888888888889,37.831622264130615L224,38.50255518635732L227.11111111111111,37.43011634636282L230.2222222222222,37.840204626848404L233.33333333333334,37.454126644450405L236.44444444444446,37.22247985501176L239.55555555555554,37.926333048934175L242.66666666666669,36.66293605506097L245.77777777777777,35.483477224943975L248.88888888888889,36.88293147089363L252,35.82618479134013L255.11111111111111,38.14213397026867L258.22222222222223,36.58170629096517L261.3333333333333,36.0668703171758L264.44444444444446,37.02225700933627L267.55555555555554,35.69906979750922L270.6666666666667,35.74802511305399L273.77777777777777,36.40952925307019" style="fill: none;" fill="none"></path></g><g><path stroke="rgb(187, 187, 187)" stroke-width="2px" d="M43.55555555555556,191.70065176389764L46.666666666666664,168.7345890149366L49.77777777777778,150.3492902119478L52.888888888888886,137.88505036834732L56,124.31570807155796L59.111111111111114,116.1561708276438L62.22222222222222,109.86463296077399L65.33333333333333,104.36215178022981L68.44444444444444,98.74746774781075L71.55555555555554,94.43437458735494L74.66666666666667,91.53248189629622L77.77777777777779,87.78986730222066L80.88888888888889,84.86003014372353L84,81.52191781433362L87.11111111111111,79.94074009348701L90.22222222222223,77.51704260403282L93.33333333333333,74.79856481303361L96.44444444444444,73.22018798414257L99.55555555555556,71.48299866043814L102.66666666666666,70.38799623627013L105.77777777777777,69.04619421937669L108.88888888888889,66.97682501762282L112,65.3137846906376L115.1111111111111,63.999882726820445L118.22222222222223,61.578503538450214L121.33333333333334,61.389965152353994L124.44444444444444,60.64468473777547L127.55555555555556,59.30197785292254L130.66666666666666,57.54814413156172L133.77777777777777,56.86459361124235L136.88888888888889,56.55983165937187L140,55.850185506400585L143.1111111111111,53.52797858044259L146.22222222222223,52.39803573740013L149.33333333333334,51.24595203889532L152.44444444444443,51.55560879685011L155.55555555555557,50.529785559412886L158.66666666666666,50.441080597499216L161.77777777777777,49.49231899201849L164.88888888888889,47.132011147447606L168,45.76849742643259L171.11111111111111,45.74055947608897L174.22222222222223,46.250585685672554L177.33333333333331,46.13518077760811L180.44444444444446,44.95968888775836L183.55555555555554,45.04456403599045L186.66666666666666,43.56781954613119L189.7777777777778,44.156771445555016L192.88888888888889,44.66818191664452L196,41.60358400378518L199.11111111111111,42.504112125837764L202.22222222222223,40.98997044050858L205.33333333333331,39.34398613264616L208.44444444444446,38.725145196261685L211.55555555555554,38.93330059966012L214.66666666666669,38.531404861930284L217.77777777777777,38.34293840475272L220.88888888888889,36.912899268551946L224,34.685245539476945L227.11111111111111,34.560244217950405L230.2222222222222,34.11649377670188L233.33333333333334,34.218993160285244L236.44444444444446,33.85907215664267L239.55555555555554,32.22079194658676L242.66666666666669,32.870861745319786L245.77777777777777,32.73411464479079L248.88888888888889,31.598514799991307L252,30.917154893111555L255.11111111111111,30.824391236800583L258.22222222222223,30.505351740657602L261.3333333333333,30.366599028432034L264.44444444444446,30.283347401096513L267.55555555555554,30.76018540446411L270.6666666666667,29.72932894459031L273.77777777777777,29.426893731538318" style="fill: none;" fill="none"></path></g><g><path stroke="rgb(51, 187, 238)" stroke-width="2px" d="M31.11111111111111,164.8839009404182L34.22222222222222,126.69195541553195L37.333333333333336,106.66871737339068L40.44444444444444,91.54061862831836L43.55555555555556,77.88383580691539L46.666666666666664,69.96063191152975L49.77777777777778,63.28229432002027L52.888888888888886,60.25422378673353L56,54.425930509888715L59.111111111111114,51.81476926070002L62.22222222222222,50.6811691707926L65.33333333333333,49.58130699024135L68.44444444444444,46.39104058026838L71.55555555555554,43.63604724854463L74.66666666666667,43.46012605483242L77.77777777777779,39.98223070609716L80.88888888888889,37.47462956245997L84,36.81329380679399L87.11111111111111,35.15217001999506L90.22222222222223,34.99843261681431L93.33333333333333,34.063334014991334L96.44444444444444,32.870122336109276L99.55555555555556,31.94349339927045L102.66666666666666,32.44110367244053L105.77777777777777,32.52895741134951L108.88888888888889,31.106668385428808L112,30.464007055180105L115.1111111111111,30.499831570581136L118.22222222222223,29.046327128938735L121.33333333333334,30.492091555098572L124.44444444444444,32.202391385621205L127.55555555555556,28.59286467291542L130.66666666666666,26.21643850218663L133.77777777777777,23.737004882652215L136.88888888888889,24.567211032213468L140,23.5903361042721L143.1111111111111,22.372053824299034L146.22222222222223,22.27324178923245L149.33333333333334,24.742504751873245L152.44444444444443,22.64193438379838L155.55555555555557,25.595877631225374L158.66666666666666,24.628956707082622L161.77777777777777,22.152384925224045" style="fill: none;" fill="none"></path></g><g><path stroke="rgb(204, 51, 17)" stroke-width="2px" d="M34.22222222222222,228.16407107189278L37.333333333333336,173.77210484201802L40.44444444444444,141.7867103508291L43.55555555555556,123.35870228753292L46.666666666666664,107.68295739474678L49.77777777777778,95.61570669085178L52.888888888888886,86.07707040421506L56,78.169239502179L59.111111111111114,72.5748680236631L62.22222222222222,66.27923460222637L65.33333333333333,62.5692901660177L68.44444444444444,58.396833139718375L71.55555555555554,55.68597378321955L74.66666666666667,53.4283900789462L77.77777777777779,49.80868492922413L80.88888888888889,47.63751549154033L84,45.070632366413825L87.11111111111111,43.00384826260556L90.22222222222223,41.605839672033234L93.33333333333333,40.13489603733639L96.44444444444444,39.04163741798337L99.55555555555556,37.27943377437541L102.66666666666666,35.48461770367715L105.77777777777777,32.03718954321173L108.88888888888889,32.075872058075355L112,30.097318277933482L115.1111111111111,30.701239286890875L118.22222222222223,28.79842194483971L121.33333333333334,28.34156045091909L124.44444444444444,27.27724685721095L127.55555555555556,26.05919877999195L130.66666666666666,24.80158099077812L133.77777777777777,24.573799350546295L136.88888888888889,22.33000079034134L140,20.66764301277223L143.1111111111111,20.091648993605208L146.22222222222223,19.956762902065105L149.33333333333334,18.348161665267664L152.44444444444443,17.751750574308183L155.55555555555557,18.447481880625336L158.66666666666666,17.389922070018233L161.77777777777777,15.859847555619783" style="fill: none;" fill="none"></path></g></g></g></g><g opacity="0.2"><g><g><g><path stroke="rgb(255, 112, 67)" stroke-width="2px" d="M34.22222222222222,180.68750439584252L37.333333333333336,146.44641852378842L40.44444444444444,130.6428810060024L43.55555555555556,121.6874947249889L46.666666666666664,109.04461196064945L49.77777777777778,99.56251582503315L52.888888888888886,90.60712954401966L56,84.81252989172931L59.111111111111114,79.01786430180069L62.22222222222222,74.27681623399253L65.33333333333333,73.74997450411315L68.44444444444444,70.0624780207872L71.55555555555554,64.79465416073795L74.66666666666667,66.90175732970233L77.77777777777779,62.16070926189418L80.88888888888889,67.95537485182281L84,59.52676436305042L87.11111111111111,60.053540155291515L90.22222222222223,57.41966119408603L93.33333333333333,58.99998857080932L96.44444444444444,55.31249208748336L99.55555555555556,54.78571629524227L102.66666666666666,52.1517713963985L105.77777777777777,51.09821981191631L108.88888888888889,53.732164710760074L112,50.57144401967521L115.1111111111111,48.464274913072565L118.22222222222223,50.04466822743414L121.33333333333334,50.57144401967521L124.44444444444444,50.04466822743414L127.55555555555556,43.72322684526441L130.66666666666666,48.464274913072565L133.77777777777777,47.93749912083147L136.88888888888889,44.77677842974661L140,43.19645105302332L143.1111111111111,41.616057738661745L146.22222222222223,45.8303300142288L149.33333333333334,42.14283353090284L152.44444444444443,45.3035542219877L155.55555555555557,42.66967526078222L158.66666666666666,43.72322684526441L161.77777777777777,39.50895456969736L164.88888888888889,44.77677842974661L168,42.66967526078222L171.11111111111111,39.50895456969736L174.22222222222223,41.616057738661745L177.33333333333331,42.14283353090284L180.44444444444446,41.616057738661745L183.55555555555554,35.8214580863714L186.66666666666666,38.98211283981798L189.7777777777778,42.14283353090284L192.88888888888889,38.45533704757688L196,40.035730361938455L199.11111111111111,39.50895456969736L202.22222222222223,37.92856125533579L205.33333333333331,41.08928194642065L208.44444444444446,38.45533704757688L211.55555555555554,41.616057738661745L214.66666666666669,37.92856125533579L217.77777777777777,36.3482338786125L220.88888888888889,37.40178546309469L224,39.50895456969736L227.11111111111111,35.8214580863714L230.2222222222222,38.45533704757688L233.33333333333334,36.87500967085359L236.44444444444446,36.87500967085359L239.55555555555554,38.98211283981798L242.66666666666669,34.767840564250925L245.77777777777777,33.71428897976873L248.88888888888889,38.98211283981798L252,34.24106477200983L255.11111111111111,41.616057738661745L258.22222222222223,34.24106477200983L261.3333333333333,35.29461635649202L264.44444444444446,38.45533704757688L267.55555555555554,33.71428897976873L270.6666666666667,35.8214580863714L273.77777777777777,37.40178546309469" style="fill: none;" fill="none"></path></g><g><path stroke="rgb(187, 187, 187)" stroke-width="2px" d="M37.333333333333336,197.41291603445998L40.44444444444444,171.9955389797687L43.55555555555556,152.63618244230744L46.666666666666664,136.96425645053384L49.77777777777778,124.05801875889297L52.888888888888886,119.71206901967521L56,104.3035638928413L59.111111111111114,104.04020896553989L62.22222222222222,100.48438994586463L65.33333333333333,96.1383742690086L68.44444444444444,90.34377461671825L71.55555555555554,87.97318464517589L74.66666666666667,87.18305392563339L77.77777777777779,82.17858499288555L80.88888888888889,80.46651421487327L84,76.51559686660762L87.11111111111111,77.5692143887281L90.22222222222223,73.88171790540214L93.33333333333333,70.72099721431728L96.44444444444444,70.85267467796798L99.55555555555556,68.8772489726543L102.66666666666666,68.74550557136531L105.77777777777777,67.03350073099132L108.88888888888889,63.87278003990646L112,62.819228455424266L115.1111111111111,62.02903179824348L118.22222222222223,57.94643698632713L121.33333333333334,61.10715767741199L124.44444444444444,59.52676436305042L127.55555555555556,57.287917792797046L130.66666666666666,54.91739375889297L133.77777777777777,55.83926787972446L136.88888888888889,56.10268874466415L140,54.78571629524227L143.1111111111111,50.04466822743414L146.22222222222223,50.703121483325916L149.33333333333334,49.51782649755476L152.44444444444443,52.0200939327478L155.55555555555557,48.99105070531366L158.66666666666666,50.308023154735544L161.77777777777777,48.06917658448217L164.88888888888889,43.59154938161371L168,43.72322684526441L171.11111111111111,45.698652550578096L174.22222222222223,47.01562499999998L177.33333333333331,45.962073415517786L180.44444444444446,43.19645105302332L183.55555555555554,45.171876758337L186.66666666666666,41.35270281136034L189.7777777777778,45.040199294686296L192.88888888888889,45.43529762327669L196,37.0066871345043L199.11111111111111,43.85490430891512L202.22222222222223,38.71875791251657L205.33333333333331,36.87500967085359L208.44444444444446,37.79688379168508L211.55555555555554,39.24553370475767L214.66666666666669,37.92856125533579L217.77777777777777,38.06023871898649L220.88888888888889,34.767840564250925L224,31.343764945864656L227.11111111111111,34.37274223566053L230.2222222222222,33.45086811482904L233.33333333333334,34.37274223566053L236.44444444444446,33.31919065117834L239.55555555555554,29.763371631503084L242.66666666666669,33.845966443419435L245.77777777777777,32.52899399399755L248.88888888888889,29.89511503279207L252,29.89511503279207L255.11111111111111,30.685245752334573L258.22222222222223,30.026792496442773L261.3333333333333,30.158469960093477L264.44444444444446,30.158469960093477L267.55555555555554,31.47544240951536L270.6666666666667,28.183044254779794L273.77777777777777,28.97324091196058" style="fill: none;" fill="none"></path></g><g><path stroke="rgb(51, 187, 238)" stroke-width="2px" d="M31.11111111111111,164.8839009404182L34.22222222222222,103.7767881006002L37.333333333333336,87.4464088529348L40.44444444444444,73.74997450411315L43.55555555555556,60.053540155291515L46.666666666666664,58.99998857080932L49.77777777777778,53.732164710760074L52.888888888888886,55.83926787972446L56,45.8303300142288L59.111111111111114,47.93749912083147L62.22222222222222,48.99105070531366L65.33333333333333,47.93749912083147L68.44444444444444,41.616057738661745L71.55555555555554,39.50895456969736L74.66666666666667,43.19645105302332L77.77777777777779,34.767840564250925L80.88888888888889,33.71428897976873L84,35.8214580863714L87.11111111111111,32.66073739528654L90.22222222222223,34.767840564250925L93.33333333333333,32.66073739528654L96.44444444444444,31.080344080924966L99.55555555555556,30.55356828868387L102.66666666666666,33.187513187527635L105.77777777777777,32.66073739528654L108.88888888888889,28.97324091196058L112,29.500016704201677L115.1111111111111,30.55356828868387L118.22222222222223,26.86607180535791L121.33333333333334,32.66073739528654L124.44444444444444,34.767840564250925L127.55555555555556,23.178575322031953L130.66666666666666,22.651799529790857L133.77777777777777,20.01785463094709L136.88888888888889,25.81252022087572L140,22.12502373754976L143.1111111111111,20.544630423188188L146.22222222222223,22.12502373754976L149.33333333333334,28.4463991820812L152.44444444444443,19.491078838705995L155.55555555555557,30.026792496442773L158.66666666666666,23.178575322031953L161.77777777777777,18.437527254223802" style="fill: none;" fill="none"></path></g><g><path stroke="rgb(204, 51, 17)" stroke-width="2px" d="M31.11111111111111,336.4843626916408L34.22222222222222,163.1718961000442L37.333333333333336,121.55581726133819L40.44444444444444,104.1718864291906L43.55555555555556,99.29909496009346L46.666666666666664,85.99775893986221L49.77777777777778,78.3593451082706L52.888888888888886,72.16964712738987L56,66.50672493875022L59.111111111111114,64.26787836849685L62.22222222222222,56.892885401844936L65.33333333333333,57.02456286549564L68.44444444444444,52.1517713963985L71.55555555555554,51.624995604157405L74.66666666666667,50.04466822743414L77.77777777777779,44.38168010115621L80.88888888888889,44.38168010115621L84,41.22095941007135L87.11111111111111,39.90398696064947L90.22222222222223,39.50895456969736L93.33333333333333,37.92856125533579L96.44444444444444,37.40178546309469L99.55555555555556,34.63616310060022L102.66666666666666,32.79241485893724L105.77777777777777,26.86607180535791L108.88888888888889,32.13389566540716L112,27.1294926702976L115.1111111111111,31.607119873166063L118.22222222222223,25.944197684526422L121.33333333333334,27.656268462538698L124.44444444444444,25.680776819586733L127.55555555555556,24.232126906514146L130.66666666666666,22.915154457092264L133.77777777777777,24.232126906514146L136.88888888888889,18.9643030464649L140,18.174106389284113L143.1111111111111,19.227657973766306L146.22222222222223,19.754433766007402L149.33333333333334,15.935259819030742L152.44444444444443,16.85713393986223L155.55555555555557,19.491078838705995L158.66666666666666,15.803582355380039L161.77777777777777,13.564735785126667" style="fill: none;" fill="none"></path></g></g></g></g></g></g><g transform="translate(50, 177)" clip-path="url(#clip_1)"><clipPath id="clip_1"><rect width="280" height="23"></rect></clipPath><g><g><line x1="0" y1="0" x2="0" y2="5" style="visibility: inherit;" fill="rgb(0, 0, 0)" stroke="rgb(204, 204, 204)" stroke-width="1px"></line><line x1="31.11111111111111" y1="0" x2="31.11111111111111" y2="5" style="visibility: inherit;" fill="rgb(0, 0, 0)" stroke="rgb(204, 204, 204)" stroke-width="1px"></line><line x1="62.22222222222222" y1="0" x2="62.22222222222222" y2="5" style="visibility: inherit;" fill="rgb(0, 0, 0)" stroke="rgb(204, 204, 204)" stroke-width="1px"></line><line x1="93.33333333333333" y1="0" x2="93.33333333333333" y2="5" style="visibility: inherit;" fill="rgb(0, 0, 0)" stroke="rgb(204, 204, 204)" stroke-width="1px"></line><line x1="124.44444444444444" y1="0" x2="124.44444444444444" y2="5" style="visibility: inherit;" fill="rgb(0, 0, 0)" stroke="rgb(204, 204, 204)" stroke-width="1px"></line><line x1="155.55555555555557" y1="0" x2="155.55555555555557" y2="5" style="visibility: inherit;" fill="rgb(0, 0, 0)" stroke="rgb(204, 204, 204)" stroke-width="1px"></line><line x1="186.66666666666666" y1="0" x2="186.66666666666666" y2="5" style="visibility: inherit;" fill="rgb(0, 0, 0)" stroke="rgb(204, 204, 204)" stroke-width="1px"></line><line x1="217.77777777777777" y1="0" x2="217.77777777777777" y2="5" style="visibility: inherit;" fill="rgb(0, 0, 0)" stroke="rgb(204, 204, 204)" stroke-width="1px"></line><line x1="248.88888888888889" y1="0" x2="248.88888888888889" y2="5" style="visibility: inherit;" fill="rgb(0, 0, 0)" stroke="rgb(204, 204, 204)" stroke-width="1px"></line><line x1="280" y1="0" x2="280" y2="5" style="visibility: inherit;" fill="rgb(0, 0, 0)" stroke="rgb(204, 204, 204)" stroke-width="1px"></line></g><g transform="translate(0, 8)"><text x="0" y="0" dx="0em" dy="0.95em" style="text-anchor: middle; visibility: hidden; font-family: Roboto, sans-serif; font-size: 12px; font-weight: 200;" fill="rgb(33, 33, 33)" stroke="none" stroke-width="1px">-10</text><text x="31.11111111111111" y="0" dx="0em" dy="0.95em" style="text-anchor: middle; visibility: inherit; font-family: Roboto, sans-serif; font-size: 12px; font-weight: 200;" fill="rgb(33, 33, 33)" stroke="none" stroke-width="1px">0</text><text x="62.22222222222222" y="0" dx="0em" dy="0.95em" style="text-anchor: middle; visibility: inherit; font-family: Roboto, sans-serif; font-size: 12px; font-weight: 200;" fill="rgb(33, 33, 33)" stroke="none" stroke-width="1px">10</text><text x="93.33333333333333" y="0" dx="0em" dy="0.95em" style="text-anchor: middle; visibility: inherit; font-family: Roboto, sans-serif; font-size: 12px; font-weight: 200;" fill="rgb(33, 33, 33)" stroke="none" stroke-width="1px">20</text><text x="124.44444444444444" y="0" dx="0em" dy="0.95em" style="text-anchor: middle; visibility: inherit; font-family: Roboto, sans-serif; font-size: 12px; font-weight: 200;" fill="rgb(33, 33, 33)" stroke="none" stroke-width="1px">30</text><text x="155.55555555555557" y="0" dx="0em" dy="0.95em" style="text-anchor: middle; visibility: inherit; font-family: Roboto, sans-serif; font-size: 12px; font-weight: 200;" fill="rgb(33, 33, 33)" stroke="none" stroke-width="1px">40</text><text x="186.66666666666666" y="0" dx="0em" dy="0.95em" style="text-anchor: middle; visibility: inherit; font-family: Roboto, sans-serif; font-size: 12px; font-weight: 200;" fill="rgb(33, 33, 33)" stroke="none" stroke-width="1px">50</text><text x="217.77777777777777" y="0" dx="0em" dy="0.95em" style="text-anchor: middle; visibility: inherit; font-family: Roboto, sans-serif; font-size: 12px; font-weight: 200;" fill="rgb(33, 33, 33)" stroke="none" stroke-width="1px">60</text><text x="248.88888888888889" y="0" dx="0em" dy="0.95em" style="text-anchor: middle; visibility: inherit; font-family: Roboto, sans-serif; font-size: 12px; font-weight: 200;" fill="rgb(33, 33, 33)" stroke="none" stroke-width="1px">70</text><text x="280" y="0" dx="0em" dy="0.95em" style="text-anchor: middle; visibility: hidden; font-family: Roboto, sans-serif; font-size: 12px; font-weight: 200;" fill="rgb(33, 33, 33)" stroke="none" stroke-width="1px">80</text></g><line x1="0" y1="0" x2="280" y2="0" fill="rgb(0, 0, 0)" stroke="rgb(204, 204, 204)" stroke-width="1px"></line></g></g></g></g></svg>